<svg width="330" height="40" viewBox="0 0 330 40" fill="none" xmlns="http://www.w3.org/2000/svg">
<path d="M6.33257 14.2927C6.33257 14.7389 6.56253 15.0612 7.02443 15.2597C7.49026 15.4543 8.33936 15.6175 9.57174 15.7472C10.981 15.8946 12.1309 16.3172 13.0232 17.013C13.9195 17.7107 14.3676 18.6837 14.3676 19.9298V20.0949C14.3676 21.4747 13.8644 22.5715 12.8581 23.3891C11.8557 24.2068 10.4444 24.6156 8.62043 24.6156C7.5394 24.6156 6.61757 24.4761 5.85298 24.1989C5.09232 23.9159 4.46139 23.568 3.95822 23.1533C3.45898 22.7346 3.07373 22.2707 2.80249 21.7617C2.53518 21.2487 2.35435 20.7475 2.26001 20.26L5.49919 19.2065C5.64464 19.8001 5.95519 20.319 6.42691 20.7632C6.90257 21.2094 7.63374 21.4315 8.62043 21.4315C9.49509 21.4315 10.0946 21.2978 10.4208 21.0305C10.7452 20.7593 10.9083 20.4644 10.9083 20.1499C10.9083 19.9672 10.8651 19.7962 10.7825 19.6389C10.698 19.4777 10.5427 19.3284 10.3186 19.1908C10.0985 19.0493 9.79581 18.9353 9.4145 18.8448C9.03123 18.7505 8.55164 18.6758 7.97574 18.6168C6.41315 18.4871 5.17095 18.0822 4.24912 17.4061C3.33122 16.726 2.87325 15.7236 2.87325 14.4028V14.2377C2.87325 13.5517 3.02263 12.9483 3.32139 12.4294C3.62015 11.9066 4.00932 11.4623 4.49284 11.1007C4.97439 10.739 5.53064 10.4678 6.1596 10.283C6.7925 10.0943 7.44505 10 8.11726 10C8.99192 10 9.74864 10.1081 10.3894 10.3223C11.0341 10.5386 11.5785 10.8177 12.0247 11.1636C12.4689 11.5056 12.8306 11.8849 13.1097 12.3036C13.3868 12.7183 13.6011 13.1212 13.7544 13.5144L10.5702 14.7959C10.4012 14.2927 10.1142 13.8976 9.7054 13.6087C9.29657 13.3217 8.76588 13.1763 8.11726 13.1763C7.52367 13.1763 7.07947 13.2844 6.78071 13.4986C6.48195 13.7148 6.33257 13.9782 6.33257 14.2927Z" fill="white"/>
<path d="M27.9407 10.3931H31.4551V24.2225H27.9407V22.2177H27.4454C26.8322 23.8176 25.5113 24.6156 23.4829 24.6156C22.795 24.6156 22.1542 24.5016 21.5567 24.2775C20.9631 24.0574 20.4422 23.7154 19.9921 23.2476C19.546 22.7818 19.1981 22.2 18.9465 21.5022C18.6988 20.8064 18.577 19.9829 18.577 19.0335V10.3931H22.0913V18.3102C22.0913 19.2969 22.3213 20.0635 22.7832 20.6138C23.249 21.1602 23.9468 21.4315 24.8745 21.4315C25.9319 21.4315 26.7083 21.0934 27.2017 20.4172C27.693 19.7372 27.9407 18.8114 27.9407 17.6419V10.3931Z" fill="white"/>
<path d="M38.0073 29.7967H34.493V10.3931H38.0073V12.3979H38.5105C38.882 11.6392 39.4225 11.0496 40.1301 10.629C40.8377 10.2103 41.7379 10 42.8346 10C43.6523 10 44.4267 10.1612 45.1618 10.4796C45.895 10.7941 46.5377 11.254 47.088 11.8555C47.6384 12.4589 48.0747 13.1979 48.401 14.0726C48.7253 14.9492 48.8885 15.9418 48.8885 17.0523V17.5555C48.8885 18.6935 48.7273 19.6998 48.4089 20.5745C48.0944 21.4452 47.6659 22.1843 47.1273 22.7916C46.5868 23.395 45.95 23.851 45.2169 24.1596C44.4818 24.4623 43.6877 24.6156 42.8346 24.6156C42.1998 24.6156 41.6494 24.5488 41.1836 24.4191C40.7217 24.2874 40.3188 24.1124 39.9729 23.8923C39.6309 23.6682 39.3439 23.4107 39.108 23.1218C38.8761 22.8348 38.6776 22.5322 38.5105 22.2177H38.0073V29.7967ZM41.6946 21.2664C42.7894 21.2664 43.6759 20.9283 44.352 20.2522C45.0321 19.5721 45.3741 18.6463 45.3741 17.4768V17.1388C45.3741 15.9713 45.0321 15.0475 44.352 14.3713C43.6759 13.6912 42.7894 13.3492 41.6946 13.3492C40.594 13.3492 39.7016 13.6991 39.0215 14.3949C38.3454 15.0927 38.0073 16.0066 38.0073 17.1388V17.4768C38.0073 18.609 38.3454 19.5249 39.0215 20.2207C39.7016 20.9185 40.594 21.2664 41.6946 21.2664Z" fill="white"/>
<path d="M54.9612 18.4517C54.9808 18.8606 55.0791 19.2379 55.252 19.5839C55.4289 19.9259 55.6707 20.2207 55.9754 20.4723C56.2839 20.7239 56.6377 20.9204 57.0367 21.0619C57.4397 21.1995 57.8642 21.2664 58.3104 21.2664C59.1851 21.2664 59.8533 21.115 60.3152 20.8104C60.7811 20.5018 61.1172 20.1323 61.3216 19.7018L64.3328 21.3764C64.1637 21.7342 63.9318 22.1037 63.633 22.485C63.3382 22.8624 62.953 23.2122 62.4773 23.5306C62.0056 23.8451 61.4277 24.1046 60.7476 24.309C60.0715 24.5134 59.2774 24.6156 58.3654 24.6156C57.3217 24.6156 56.3724 24.4466 55.5194 24.1124C54.6644 23.7783 53.9253 23.2948 53.3023 22.6658C52.6831 22.0329 52.2016 21.2585 51.8556 20.3465C51.5097 19.4345 51.3367 18.4026 51.3367 17.2488V17.0837C51.3367 16.0263 51.5176 15.0592 51.8792 14.1826C52.2448 13.308 52.744 12.563 53.373 11.9498C54.0059 11.3366 54.7449 10.8609 55.5901 10.5189C56.4392 10.173 57.3453 10 58.3104 10C59.4995 10 60.5216 10.2103 61.3766 10.629C62.2296 11.0496 62.9353 11.5783 63.4915 12.2171C64.0517 12.8579 64.4605 13.5655 64.718 14.3399C64.9794 15.1104 65.1111 15.8573 65.1111 16.5806V18.4517H54.9612ZM58.2789 13.1763C57.3866 13.1763 56.6613 13.4043 56.1012 13.8603C55.5449 14.3163 55.1833 14.843 55.0162 15.4406H61.5417C61.4316 14.7919 61.0818 14.2514 60.4961 13.821C59.9143 13.3925 59.1752 13.1763 58.2789 13.1763Z" fill="white"/>
<path d="M67.8502 10.3931H73.6996V12.3979H74.2028C74.4642 11.6392 74.9064 11.0496 75.5315 10.629C76.1545 10.2103 76.9014 10 77.7722 10C79.15 10 80.2566 10.4324 81.09 11.2972C81.9273 12.1621 82.3479 13.479 82.3479 15.244V15.8573L78.7235 16.1875V15.8022C78.7235 15.0376 78.5269 14.4303 78.1338 13.9782C77.7446 13.5222 77.1609 13.2942 76.3806 13.2942C75.5983 13.2942 74.9851 13.5655 74.5408 14.104C74.0947 14.6386 73.8726 15.4091 73.8726 16.4155V20.8733H77.0489V24.2225H67.5121V20.8733H70.3582V13.7345H67.8502V10.3931Z" fill="white"/>
<path d="M89.5743 14.2927C89.5743 14.7389 89.8042 15.0612 90.2661 15.2597C90.732 15.4543 91.5811 15.6175 92.8134 15.7472C94.2227 15.8946 95.3726 16.3172 96.2649 17.013C97.1612 17.7107 97.6093 18.6837 97.6093 19.9298V20.0949C97.6093 21.4747 97.1061 22.5715 96.0998 23.3891C95.0974 24.2068 93.6861 24.6156 91.8621 24.6156C90.7811 24.6156 89.8593 24.4761 89.0947 24.1989C88.334 23.9159 87.7031 23.568 87.1999 23.1533C86.7007 22.7346 86.3154 22.2707 86.0442 21.7617C85.7769 21.2487 85.5961 20.7475 85.5017 20.26L88.7409 19.2065C88.8863 19.8001 89.1969 20.319 89.6686 20.7632C90.1443 21.2094 90.8754 21.4315 91.8621 21.4315C92.7368 21.4315 93.3363 21.2978 93.6625 21.0305C93.9869 20.7593 94.15 20.4644 94.15 20.1499C94.15 19.9672 94.1068 19.7962 94.0242 19.6389C93.9397 19.4777 93.7844 19.3284 93.5603 19.1908C93.3402 19.0493 93.0375 18.9353 92.6562 18.8448C92.2729 18.7505 91.7933 18.6758 91.2174 18.6168C89.6549 18.4871 88.4126 18.0822 87.4908 17.4061C86.5729 16.726 86.115 15.7236 86.115 14.4028V14.2377C86.115 13.5517 86.2643 12.9483 86.5631 12.4294C86.8618 11.9066 87.251 11.4623 87.7345 11.1007C88.2161 10.739 88.7723 10.4678 89.4013 10.283C90.0342 10.0943 90.6868 10 91.359 10C92.2336 10 92.9903 10.1081 93.6311 10.3223C94.2758 10.5386 94.8202 10.8177 95.2664 11.1636C95.7106 11.5056 96.0723 11.8849 96.3514 12.3036C96.6285 12.7183 96.8428 13.1212 96.9961 13.5144L93.8119 14.7959C93.6429 14.2927 93.3559 13.8976 92.9471 13.6087C92.5383 13.3217 92.0076 13.1763 91.359 13.1763C90.7654 13.1763 90.3212 13.2844 90.0224 13.4986C89.7236 13.7148 89.5743 13.9782 89.5743 14.2927Z" fill="#FFADAD"/>
<path d="M104.909 18.4517C104.928 18.8606 105.026 19.2379 105.199 19.5839C105.376 19.9259 105.618 20.2207 105.923 20.4723C106.231 20.7239 106.585 20.9204 106.984 21.0619C107.387 21.1995 107.812 21.2664 108.258 21.2664C109.132 21.2664 109.801 21.115 110.263 20.8104C110.728 20.5018 111.065 20.1323 111.269 19.7018L114.28 21.3764C114.111 21.7342 113.879 22.1037 113.58 22.485C113.286 22.8624 112.9 23.2122 112.425 23.5306C111.953 23.8451 111.375 24.1046 110.695 24.309C110.019 24.5134 109.225 24.6156 108.313 24.6156C107.269 24.6156 106.32 24.4466 105.467 24.1124C104.612 23.7783 103.873 23.2948 103.25 22.6658C102.63 22.0329 102.149 21.2585 101.803 20.3465C101.457 19.4345 101.284 18.4026 101.284 17.2488V17.0837C101.284 16.0263 101.465 15.0592 101.827 14.1826C102.192 13.308 102.691 12.563 103.32 11.9498C103.953 11.3366 104.692 10.8609 105.538 10.5189C106.387 10.173 107.293 10 108.258 10C109.447 10 110.469 10.2103 111.324 10.629C112.177 11.0496 112.883 11.5783 113.439 12.2171C113.999 12.8579 114.408 13.5655 114.665 14.3399C114.927 15.1104 115.058 15.8573 115.058 16.5806V18.4517H104.909ZM108.226 13.1763C107.334 13.1763 106.609 13.4043 106.049 13.8603C105.492 14.3163 105.131 14.843 104.964 15.4406H111.489C111.379 14.7919 111.029 14.2514 110.443 13.821C109.862 13.3925 109.123 13.1763 108.226 13.1763Z" fill="#FFADAD"/>
<path d="M117.798 10.3931H123.647V12.3979H124.15C124.412 11.6392 124.854 11.0496 125.479 10.629C126.102 10.2103 126.849 10 127.72 10C129.097 10 130.204 10.4324 131.037 11.2972C131.875 12.1621 132.295 13.479 132.295 15.244V15.8573L128.671 16.1875V15.8022C128.671 15.0376 128.474 14.4303 128.081 13.9782C127.692 13.5222 127.108 13.2942 126.328 13.2942C125.546 13.2942 124.932 13.5655 124.488 14.104C124.042 14.6386 123.82 15.4091 123.82 16.4155V20.8733H126.996V24.2225H117.46V20.8733H120.306V13.7345H117.798V10.3931Z" fill="#FFADAD"/>
<path d="M134.138 10.3931H137.928L141.19 22.5479H141.694L144.956 10.3931H148.746L144.783 24.2225H138.093L134.138 10.3931Z" fill="#FFADAD"/>
<path d="M154.85 18.4517C154.87 18.8606 154.968 19.2379 155.141 19.5839C155.318 19.9259 155.56 20.2207 155.864 20.4723C156.173 20.7239 156.527 20.9204 156.926 21.0619C157.329 21.1995 157.753 21.2664 158.199 21.2664C159.074 21.2664 159.742 21.115 160.204 20.8104C160.67 20.5018 161.006 20.1323 161.21 19.7018L164.222 21.3764C164.053 21.7342 163.821 22.1037 163.522 22.485C163.227 22.8624 162.842 23.2122 162.366 23.5306C161.894 23.8451 161.317 24.1046 160.637 24.309C159.96 24.5134 159.166 24.6156 158.254 24.6156C157.211 24.6156 156.261 24.4466 155.408 24.1124C154.553 23.7783 153.814 23.2948 153.191 22.6658C152.572 22.0329 152.09 21.2585 151.745 20.3465C151.399 19.4345 151.226 18.4026 151.226 17.2488V17.0837C151.226 16.0263 151.406 15.0592 151.768 14.1826C152.134 13.308 152.633 12.563 153.262 11.9498C153.895 11.3366 154.634 10.8609 155.479 10.5189C156.328 10.173 157.234 10 158.199 10C159.388 10 160.41 10.2103 161.265 10.629C162.119 11.0496 162.824 11.5783 163.38 12.2171C163.941 12.8579 164.349 13.5655 164.607 14.3399C164.868 15.1104 165 15.8573 165 16.5806V18.4517H154.85ZM158.168 13.1763C157.275 13.1763 156.55 13.4043 155.99 13.8603C155.434 14.3163 155.072 14.843 154.905 15.4406H161.431C161.321 14.7919 160.971 14.2514 160.385 13.821C159.803 13.3925 159.064 13.1763 158.168 13.1763Z" fill="#FFADAD"/>
</svg>
