<svg width="330" height="40" viewBox="0 0 330 40" fill="none" xmlns="http://www.w3.org/2000/svg">
<path d="M6.43264 14.3982C6.43264 14.8553 6.66826 15.1856 7.14151 15.389C7.61878 15.5884 8.48876 15.7555 9.75143 15.8884C11.1953 16.0395 12.3734 16.4725 13.2877 17.1853C14.206 17.9003 14.6652 18.8971 14.6652 20.1739V20.343C14.6652 21.7567 14.1496 22.8805 13.1186 23.7182C12.0915 24.556 10.6456 24.9748 8.77674 24.9748C7.66913 24.9748 6.72464 24.8319 5.94126 24.5479C5.16191 24.2579 4.51547 23.9015 3.99993 23.4766C3.48842 23.0476 3.09371 22.5723 2.8158 22.0508C2.54192 21.5252 2.35664 21.0116 2.25998 20.5122L5.57877 19.4328C5.7278 20.041 6.04598 20.5726 6.5293 21.0277C7.01665 21.4849 7.76579 21.7124 8.77674 21.7124C9.67289 21.7124 10.2871 21.5755 10.6214 21.3016C10.9537 21.0237 11.1208 20.7216 11.1208 20.3994C11.1208 20.2121 11.0765 20.0369 10.992 19.8758C10.9054 19.7107 10.7463 19.5576 10.5167 19.4167C10.2911 19.2717 9.98101 19.1549 9.59032 19.0622C9.19763 18.9656 8.70625 18.889 8.1162 18.8286C6.5152 18.6957 5.24246 18.2809 4.29798 17.5881C3.35752 16.8913 2.88829 15.8643 2.88829 14.511V14.3418C2.88829 13.639 3.04135 13.0207 3.34745 12.4891C3.65355 11.9534 4.05229 11.4983 4.54769 11.1277C5.04108 10.7572 5.61099 10.4793 6.25542 10.29C6.90387 10.0967 7.57247 10 8.2612 10C9.15735 10 9.93268 10.1108 10.5892 10.3303C11.2497 10.5518 11.8076 10.8378 12.2647 11.1922C12.7198 11.5426 13.0904 11.9313 13.3763 12.3602C13.6603 12.7851 13.8798 13.198 14.0369 13.6007L10.7745 14.9137C10.6013 14.3982 10.3072 13.9934 9.88837 13.6974C9.46949 13.4034 8.92576 13.2544 8.2612 13.2544C7.65302 13.2544 7.19789 13.3651 6.89179 13.5846C6.58569 13.8061 6.43264 14.076 6.43264 14.3982Z" fill="#545454"/>
<path d="M28.5719 10.4028H32.1726V24.5721H28.5719V22.518H28.0644C27.4361 24.1572 26.0828 24.9749 24.0045 24.9749C23.2997 24.9749 22.6432 24.858 22.031 24.6285C21.4228 24.4029 20.8891 24.0525 20.428 23.5732C19.9708 23.0959 19.6144 22.4999 19.3566 21.7849C19.1029 21.072 18.978 20.2283 18.978 19.2556V10.4028H22.5787V18.5145C22.5787 19.5254 22.8144 20.3108 23.2876 20.8747C23.7649 21.4345 24.4798 21.7124 25.4303 21.7124C26.5138 21.7124 27.3092 21.3661 27.8147 20.6733C28.3182 19.9765 28.5719 19.028 28.5719 17.8298V10.4028Z" fill="#545454"/>
<path d="M38.8859 30.2833H35.2852V10.4028H38.8859V12.4569H39.4015C39.7821 11.6795 40.3359 11.0754 41.0609 10.6444C41.7859 10.2155 42.7082 10 43.8319 10C44.6697 10 45.4631 10.1651 46.2163 10.4914C46.9675 10.8136 47.626 11.2848 48.1898 11.9011C48.7537 12.5193 49.2008 13.2765 49.5351 14.1727C49.8674 15.0708 50.0345 16.0878 50.0345 17.2256V17.7412C50.0345 18.9072 49.8694 19.9383 49.5431 20.8344C49.2209 21.7265 48.7819 22.4837 48.2301 23.106C47.6763 23.7243 47.0238 24.1915 46.2727 24.5076C45.5195 24.8178 44.7059 24.9748 43.8319 24.9748C43.1814 24.9748 42.6176 24.9064 42.1403 24.7735C41.667 24.6385 41.2542 24.4593 40.8998 24.2338C40.5494 24.0042 40.2554 23.7404 40.0137 23.4443C39.7761 23.1503 39.5727 22.8402 39.4015 22.518H38.8859V30.2833ZM42.6639 21.5433C43.7856 21.5433 44.6938 21.1969 45.3866 20.5041C46.0834 19.8074 46.4338 18.8588 46.4338 17.6606V17.3142C46.4338 16.118 46.0834 15.1715 45.3866 14.4788C44.6938 13.782 43.7856 13.4316 42.6639 13.4316C41.5361 13.4316 40.6219 13.79 39.9251 14.5029C39.2323 15.2178 38.8859 16.1543 38.8859 17.3142V17.6606C38.8859 18.8206 39.2323 19.759 39.9251 20.4719C40.6219 21.1868 41.5361 21.5433 42.6639 21.5433Z" fill="#545454"/>
<path d="M56.2565 18.6595C56.2766 19.0783 56.3773 19.465 56.5545 19.8194C56.7358 20.1698 56.9835 20.4719 57.2956 20.7297C57.6118 20.9875 57.9743 21.1888 58.3831 21.3338C58.7959 21.4748 59.2309 21.5433 59.688 21.5433C60.5842 21.5433 61.2689 21.3882 61.7421 21.0761C62.2194 20.7599 62.5638 20.3813 62.7732 19.9403L65.8584 21.6561C65.6852 22.0226 65.4476 22.4012 65.1415 22.7919C64.8394 23.1785 64.4447 23.537 63.9574 23.8632C63.474 24.1854 62.882 24.4513 62.1852 24.6607C61.4924 24.8701 60.6788 24.9748 59.7444 24.9748C58.6751 24.9748 57.7024 24.8017 56.8284 24.4593C55.9524 24.117 55.1952 23.6216 54.5568 22.9771C53.9224 22.3287 53.4291 21.5352 53.0746 20.6008C52.7202 19.6664 52.543 18.6091 52.543 17.427V17.2578C52.543 16.1744 52.7282 15.1836 53.0988 14.2854C53.4734 13.3893 53.9849 12.626 54.6293 11.9977C55.2778 11.3694 56.035 10.8821 56.9009 10.5317C57.7709 10.1772 58.6992 10 59.688 10C60.9064 10 61.9536 10.2155 62.8296 10.6444C63.7036 11.0754 64.4266 11.6171 64.9965 12.2716C65.5704 12.9281 65.9893 13.6531 66.2531 14.4465C66.521 15.236 66.6559 16.0012 66.6559 16.7423V18.6595H56.2565ZM59.6558 13.2544C58.7415 13.2544 57.9984 13.488 57.4245 13.9552C56.8546 14.4224 56.484 14.9621 56.3129 15.5743H62.9988C62.886 14.9097 62.5275 14.3559 61.9274 13.9149C61.3313 13.4759 60.5741 13.2544 59.6558 13.2544Z" fill="#545454"/>
<path d="M69.4624 10.4028H75.4555V12.4569H75.9711C76.2389 11.6795 76.692 11.0754 77.3324 10.6444C77.9708 10.2155 78.7361 10 79.6282 10C81.0399 10 82.1737 10.443 83.0275 11.3291C83.8854 12.2152 84.3164 13.5645 84.3164 15.3729V16.0012L80.6029 16.3395V15.9448C80.6029 15.1614 80.4015 14.5392 79.9987 14.076C79.6 13.6088 79.0019 13.3752 78.2024 13.3752C77.4009 13.3752 76.7726 13.6531 76.3175 14.2049C75.8603 14.7526 75.6328 15.5421 75.6328 16.5731V21.1405H78.8871V24.5721H69.116V21.1405H72.032V13.8263H69.4624V10.4028Z" fill="#545454"/>
<path d="M91.7204 14.3982C91.7204 14.8553 91.956 15.1856 92.4293 15.389C92.9065 15.5884 93.7765 15.7555 95.0392 15.8884C96.4831 16.0395 97.6612 16.4725 98.5755 17.1853C99.4938 17.9003 99.9529 18.8971 99.9529 20.1739V20.343C99.9529 21.7567 99.4374 22.8805 98.4063 23.7182C97.3793 24.556 95.9333 24.9748 94.0645 24.9748C92.9569 24.9748 92.0124 24.8319 91.229 24.5479C90.4497 24.2579 89.8032 23.9015 89.2877 23.4766C88.7762 23.0476 88.3815 22.5723 88.1036 22.0508C87.8297 21.5252 87.6444 21.0116 87.5477 20.5122L90.8665 19.4328C91.0156 20.041 91.3337 20.5726 91.8171 21.0277C92.3044 21.4849 93.0536 21.7124 94.0645 21.7124C94.9607 21.7124 95.5749 21.5755 95.9092 21.3016C96.2415 21.0237 96.4086 20.7216 96.4086 20.3994C96.4086 20.2121 96.3643 20.0369 96.2797 19.8758C96.1931 19.7107 96.034 19.5576 95.8045 19.4167C95.5789 19.2717 95.2688 19.1549 94.8781 19.0622C94.4854 18.9656 93.994 18.889 93.404 18.8286C91.803 18.6957 90.5302 18.2809 89.5857 17.5881C88.6453 16.8913 88.1761 15.8643 88.1761 14.511V14.3418C88.1761 13.639 88.3291 13.0207 88.6352 12.4891C88.9413 11.9534 89.3401 11.4983 89.8355 11.1277C90.3288 10.7572 90.8988 10.4793 91.5432 10.29C92.1916 10.0967 92.8602 10 93.549 10C94.4451 10 95.2204 10.1108 95.8769 10.3303C96.5375 10.5518 97.0953 10.8378 97.5525 11.1922C98.0076 11.5426 98.3781 11.9313 98.6641 12.3602C98.948 12.7851 99.1675 13.198 99.3246 13.6007L96.0622 14.9137C95.889 14.3982 95.595 13.9934 95.1761 13.6974C94.7573 13.4034 94.2135 13.2544 93.549 13.2544C92.9408 13.2544 92.4857 13.3651 92.1796 13.5846C91.8735 13.8061 91.7204 14.076 91.7204 14.3982Z" fill="#FFADAD"/>
<path d="M107.432 18.6595C107.452 19.0783 107.552 19.465 107.73 19.8194C107.911 20.1698 108.159 20.4719 108.471 20.7297C108.787 20.9875 109.149 21.1888 109.558 21.3338C109.971 21.4748 110.406 21.5433 110.863 21.5433C111.759 21.5433 112.444 21.3882 112.917 21.0761C113.394 20.7599 113.739 20.3813 113.948 19.9403L117.033 21.6561C116.86 22.0226 116.623 22.4012 116.317 22.7919C116.014 23.1785 115.62 23.537 115.132 23.8632C114.649 24.1854 114.057 24.4513 113.36 24.6607C112.667 24.8701 111.854 24.9748 110.919 24.9748C109.85 24.9748 108.877 24.8017 108.003 24.4593C107.127 24.117 106.37 23.6216 105.732 22.9771C105.097 22.3287 104.604 21.5352 104.25 20.6008C103.895 19.6664 103.718 18.6091 103.718 17.427V17.2578C103.718 16.1744 103.903 15.1836 104.274 14.2854C104.648 13.3893 105.16 12.626 105.804 11.9977C106.453 11.3694 107.21 10.8821 108.076 10.5317C108.946 10.1772 109.874 10 110.863 10C112.081 10 113.129 10.2155 114.005 10.6444C114.879 11.0754 115.602 11.6171 116.172 12.2716C116.745 12.9281 117.164 13.6531 117.428 14.4465C117.696 15.236 117.831 16.0012 117.831 16.7423V18.6595H107.432ZM110.831 13.2544C109.917 13.2544 109.173 13.488 108.6 13.9552C108.03 14.4224 107.659 14.9621 107.488 15.5743H114.174C114.061 14.9097 113.703 14.3559 113.102 13.9149C112.506 13.4759 111.749 13.2544 110.831 13.2544Z" fill="#FFADAD"/>
<path d="M120.637 10.4028H126.631V12.4569H127.146C127.414 11.6795 127.867 11.0754 128.507 10.6444C129.146 10.2155 129.911 10 130.803 10C132.215 10 133.349 10.443 134.203 11.3291C135.06 12.2152 135.491 13.5645 135.491 15.3729V16.0012L131.778 16.3395V15.9448C131.778 15.1614 131.577 14.5392 131.174 14.076C130.775 13.6088 130.177 13.3752 129.377 13.3752C128.576 13.3752 127.948 13.6531 127.492 14.2049C127.035 14.7526 126.808 15.5421 126.808 16.5731V21.1405H130.062V24.5721H120.291V21.1405H123.207V13.8263H120.637V10.4028Z" fill="#FFADAD"/>
<path d="M137.38 10.4028H141.262L144.605 22.8563H145.121L148.464 10.4028H152.346L148.287 24.5721H141.431L137.38 10.4028Z" fill="#FFADAD"/>
<path d="M158.601 18.6595C158.621 19.0783 158.721 19.465 158.899 19.8194C159.08 20.1698 159.328 20.4719 159.64 20.7297C159.956 20.9875 160.318 21.1888 160.727 21.3338C161.14 21.4748 161.575 21.5433 162.032 21.5433C162.928 21.5433 163.613 21.3882 164.086 21.0761C164.564 20.7599 164.908 20.3813 165.117 19.9403L168.203 21.6561C168.029 22.0226 167.792 22.4012 167.486 22.7919C167.184 23.1785 166.789 23.537 166.301 23.8632C165.818 24.1854 165.226 24.4513 164.529 24.6607C163.837 24.8701 163.023 24.9748 162.089 24.9748C161.019 24.9748 160.046 24.8017 159.172 24.4593C158.296 24.117 157.539 23.6216 156.901 22.9771C156.267 22.3287 155.773 21.5352 155.419 20.6008C155.064 19.6664 154.887 18.6091 154.887 17.427V17.2578C154.887 16.1744 155.072 15.1836 155.443 14.2854C155.817 13.3893 156.329 12.626 156.973 11.9977C157.622 11.3694 158.379 10.8821 159.245 10.5317C160.115 10.1772 161.043 10 162.032 10C163.251 10 164.298 10.2155 165.174 10.6444C166.048 11.0754 166.771 11.6171 167.341 12.2716C167.915 12.9281 168.333 13.6531 168.597 14.4465C168.865 15.236 169 16.0012 169 16.7423V18.6595H158.601ZM162 13.2544C161.086 13.2544 160.343 13.488 159.769 13.9552C159.199 14.4224 158.828 14.9621 158.657 15.5743H165.343C165.23 14.9097 164.872 14.3559 164.272 13.9149C163.675 13.4759 162.918 13.2544 162 13.2544Z" fill="#FFADAD"/>
</svg>
