<svg width="180" height="180" viewBox="0 0 64 64" fill="none" xmlns="http://www.w3.org/2000/svg">
  <rect width="64" height="64" fill="#1E1918"/>
  <rect x="4" y="4" width="56" height="56" fill="none" stroke="#FFFFFF" stroke-width="3.5"/>
  <path fill="#FFFFFF" transform="translate(6 6) scale(0.83) translate(-115.998 -166.784)" d="M172.376 222.438L169.116 222.447V207.734C169.116 206.191 167.865 204.939 166.321 204.938H156.427C155.042 204.939 153.762 205.677 153.067 206.876L144.003 222.525L123.625 222.59L150.84 175.562L172.376 175.41V222.438ZM168.961 184.194C168.961 182.71 167.017 182.155 166.233 183.415L156.512 199.038C155.836 200.124 156.617 201.53 157.896 201.53H166.088C167.675 201.53 168.961 200.244 168.961 198.657V184.194Z"/>
</svg>
