<svg width="705" height="130" viewBox="0 0 705 130" fill="none" xmlns="http://www.w3.org/2000/svg">
  <path
    d="M0.122855 69.0294C0.0413498 67.6967 0 66.3532 0 65C0 63.8414 0.0303123 62.6899 0.0901869 61.5462H26.0078C25.9083 62.6843 25.8574 63.8361 25.8574 65C25.8574 66.3604 25.9268 67.7047 26.0623 69.0294H0.122855Z"
    fill="#119CA3" />
  <path
    d="M2.81957 83.9956C2.07611 81.5589 1.47195 79.0615 1.01638 76.5125H27.5778C28.3837 79.1349 29.4576 81.64 30.7677 83.9956H30.7058L12.0261 102.675C10.5438 100.595 9.18103 98.4235 7.94775 96.171L20.1231 83.9956H2.81957Z"
    fill="#119CA3" />
  <path
    d="M22.3125 114.019C20.4303 112.379 18.6435 110.632 16.9615 108.788L35.278 90.4712C36.9051 92.3681 38.7106 94.1076 40.6685 95.6633L22.3125 114.019Z"
    fill="#119CA3" />
  <path
    d="M34.5772 122.456C32.3013 121.248 30.1058 119.909 28.0006 118.449L46.58 99.8698V99.5463C49.0281 100.854 51.6313 101.91 54.3551 102.678L54.0631 102.97V129.084C51.5152 128.652 49.0178 128.072 46.58 127.353V110.453L34.5772 122.456Z"
    fill="#119CA3" />
  <path
    d="M69.0294 129.877C67.6967 129.959 66.3532 130 65 130C63.8414 130 62.6899 129.97 61.5462 129.91V103.992C62.6843 104.092 63.8361 104.143 65 104.143C66.3604 104.143 67.7047 104.073 69.0294 103.938V129.877Z"
    fill="#119CA3" />
  <path
    d="M83.9956 127.18C81.5589 127.924 79.0615 128.528 76.5125 128.984V102.97L76.0917 102.549C78.8673 101.73 81.5141 100.612 83.9956 99.2323V99.8701L102.338 118.213C100.245 119.684 98.0619 121.035 95.7978 122.255L83.9956 110.453V127.18Z"
    fill="#119CA3" />
  <path
    d="M113.584 108.182C111.925 110.047 110.16 111.816 108.299 113.48L89.9669 95.1476C91.8911 93.5522 93.6599 91.7762 95.2476 89.8455L113.584 108.182Z"
    fill="#119CA3" />
  <path
    d="M122.255 95.7981C121.034 98.0622 119.684 100.246 118.212 102.338L99.8698 83.9956H99.2323C100.612 81.5144 101.73 78.867 102.549 76.0917L102.969 76.5125H128.984C128.528 79.0615 127.924 81.5589 127.18 83.9956H110.453L122.255 95.7981Z"
    fill="#119CA3" />
  <path
    d="M129.91 61.5462C129.97 62.6899 130 63.8414 130 65C130 66.3532 129.959 67.6967 129.877 69.0294H103.938C104.073 67.7047 104.143 66.3604 104.143 65C104.143 63.8361 104.092 62.6843 103.992 61.5462H129.91Z"
    fill="#119CA3" />
  <path
    d="M122.455 34.577L110.453 46.58H127.353C128.072 49.0178 128.652 51.5152 129.084 54.0631H102.969L102.678 54.3548C101.91 51.631 100.854 49.0278 99.5463 46.58H99.8698L118.449 28.0006C119.909 30.1057 121.248 32.3012 122.455 34.577Z"
    fill="#119CA3" />
  <path
    d="M108.788 16.9615C110.632 18.6435 112.379 20.4303 114.019 22.3125L95.6633 40.6685C94.1076 38.7106 92.3681 36.9051 90.4712 35.278L108.788 16.9615Z"
    fill="#119CA3" />
  <path
    d="M96.171 7.94775C98.4235 9.18103 100.595 10.5438 102.675 12.0261L83.9956 30.7058V30.7677C81.64 29.4576 79.1349 28.3837 76.5125 27.5778V1.01638C79.0615 1.47195 81.5589 2.07611 83.9956 2.81957V20.1231L96.171 7.94775Z"
    fill="#119CA3" />
  <path
    d="M61.5462 0.0901869C62.6899 0.0303123 63.8414 0 65 0C66.3532 0 67.6967 0.0413498 69.0294 0.122855V26.0623C67.7047 25.9268 66.3604 25.8574 65 25.8574C63.8361 25.8574 62.6843 25.9083 61.5462 26.0078V0.0901869Z"
    fill="#119CA3" />
  <path
    d="M46.58 2.64688C49.0178 1.92784 51.5152 1.34788 54.0631 0.916179V27.4058C51.3842 28.1838 48.824 29.2403 46.4158 30.542L27.6615 11.7877C29.7543 10.3165 31.9377 8.96567 34.2018 7.74522L46.58 20.1234V2.64688Z"
    fill="#119CA3" />
  <path
    d="M7.74508 34.2021C8.96552 31.938 10.3163 29.7545 11.7875 27.6618L30.542 46.4161C29.2403 48.8243 28.1838 51.3845 27.4058 54.0631H0.916179C1.34788 51.5152 1.92784 49.0178 2.64688 46.58H20.1231L7.74508 34.2021Z"
    fill="#119CA3" />
  <path
    d="M40.1545 34.7524C38.2238 36.3401 36.4478 38.1089 34.8524 40.0331L16.6474 21.828L21.9388 16.5367L40.1545 34.7524Z"
    fill="#119CA3" />
  <path
    d="M183.16 96.08C175.36 96.08 169.21 94.46 164.71 91.22C160.21 87.92 157.78 83.33 157.42 77.45H170.47C170.89 80.27 172.18 82.37 174.34 83.75C176.5 85.07 179.62 85.73 183.7 85.73C190.6 85.73 194.05 83.72 194.05 79.7C194.05 78.08 193.51 76.82 192.43 75.92C191.41 75.02 189.67 74.33 187.21 73.85L175.33 71.6C164.77 69.56 159.49 64.58 159.49 56.66C159.49 51.56 161.5 47.51 165.52 44.51C169.54 41.45 175.09 39.92 182.17 39.92C189.25 39.92 194.86 41.48 199 44.6C203.2 47.66 205.54 52.01 206.02 57.65H193.06C192.4 54.95 191.14 53 189.28 51.8C187.48 50.54 184.87 49.91 181.45 49.91C178.39 49.91 176.05 50.39 174.43 51.35C172.81 52.31 172 53.72 172 55.58C172 56.96 172.51 58.07 173.53 58.91C174.55 59.75 176.17 60.38 178.39 60.8L190.54 63.14C196.06 64.22 200.11 66.02 202.69 68.54C205.27 71.06 206.56 74.45 206.56 78.71C206.56 84.17 204.55 88.43 200.53 91.49C196.51 94.55 190.72 96.08 183.16 96.08ZM235.006 95.99C227.626 95.99 221.926 94.04 217.906 90.14C213.946 86.18 211.966 80.84 211.966 74.12V41H225.376V71.42C225.376 75.62 226.456 78.8 228.616 80.96C230.776 83.06 233.986 84.11 238.246 84.11C242.746 84.11 246.196 82.97 248.596 80.69C250.996 78.41 252.196 75.2 252.196 71.06V41H265.606V81.59H272.356V95H258.586V86.36H254.806C252.706 89.48 250.066 91.88 246.886 93.56C243.766 95.18 239.806 95.99 235.006 95.99ZM280.111 116.6V54.41H273.451V41H287.221V49.64H291.001C292.861 46.52 295.381 44.12 298.561 42.44C301.741 40.76 305.581 39.92 310.081 39.92C315.661 39.92 320.341 41.09 324.121 43.43C327.961 45.71 330.871 48.95 332.851 53.15C334.831 57.35 335.821 62.3 335.821 68C335.821 73.7 334.831 78.65 332.851 82.85C330.931 87.05 328.141 90.32 324.481 92.66C320.821 94.94 316.411 96.08 311.251 96.08C307.171 96.08 303.661 95.3 300.721 93.74C297.781 92.18 295.501 89.99 293.881 87.17H293.521V116.6H280.111ZM307.651 84.47C312.511 84.47 316.171 83.03 318.631 80.15C321.151 77.21 322.411 73.16 322.411 68C322.411 62.84 321.151 58.82 318.631 55.94C316.171 53 312.511 51.53 307.651 51.53C303.391 51.53 299.971 52.76 297.391 55.22C294.811 57.62 293.521 60.92 293.521 65.12V70.88C293.521 75.08 294.811 78.41 297.391 80.87C299.971 83.27 303.391 84.47 307.651 84.47ZM367.687 96.08C361.867 96.08 356.827 94.94 352.567 92.66C348.307 90.32 345.007 87.05 342.667 82.85C340.387 78.59 339.247 73.58 339.247 67.82C339.247 62.06 340.387 57.11 342.667 52.97C344.947 48.77 348.187 45.56 352.387 43.34C356.587 41.06 361.507 39.92 367.147 39.92C372.667 39.92 377.407 41 381.367 43.16C385.327 45.26 388.387 48.32 390.547 52.34C392.707 56.3 393.787 61.01 393.787 66.47V71.15H352.207C352.687 75.71 354.247 79.22 356.887 81.68C359.587 84.08 363.157 85.28 367.597 85.28C370.897 85.28 373.567 84.68 375.607 83.48C377.707 82.22 379.177 80.36 380.017 77.9H393.517C392.257 83.6 389.347 88.07 384.787 91.31C380.287 94.49 374.587 96.08 367.687 96.08ZM352.477 62.06H380.917C380.377 58.34 378.937 55.52 376.597 53.6C374.257 51.62 371.107 50.63 367.147 50.63C363.247 50.63 360.037 51.62 357.517 53.6C354.997 55.58 353.317 58.4 352.477 62.06ZM404.469 95V54.41H397.809V41H411.489V51.44H415.269C416.769 47.84 419.079 45.11 422.199 43.25C425.319 41.39 428.889 40.46 432.909 40.46H437.409V51.98H432.279C427.419 51.98 423.759 53.39 421.299 56.21C418.899 59.03 417.699 62.78 417.699 67.46V95H404.469Z"
    fill="white" />
  <path
    d="M463.644 96.08C455.844 96.08 449.694 94.46 445.194 91.22C440.694 87.92 438.264 83.33 437.904 77.45H450.954C451.374 80.27 452.664 82.37 454.824 83.75C456.984 85.07 460.104 85.73 464.184 85.73C471.084 85.73 474.534 83.72 474.534 79.7C474.534 78.08 473.994 76.82 472.914 75.92C471.894 75.02 470.154 74.33 467.694 73.85L455.814 71.6C445.254 69.56 439.974 64.58 439.974 56.66C439.974 51.56 441.984 47.51 446.004 44.51C450.024 41.45 455.574 39.92 462.654 39.92C469.734 39.92 475.344 41.48 479.484 44.6C483.684 47.66 486.024 52.01 486.504 57.65H473.544C472.884 54.95 471.624 53 469.764 51.8C467.964 50.54 465.354 49.91 461.934 49.91C458.874 49.91 456.534 50.39 454.914 51.35C453.294 52.31 452.484 53.72 452.484 55.58C452.484 56.96 452.994 58.07 454.014 58.91C455.034 59.75 456.654 60.38 458.874 60.8L471.024 63.14C476.544 64.22 480.594 66.02 483.174 68.54C485.754 71.06 487.044 74.45 487.044 78.71C487.044 84.17 485.034 88.43 481.014 91.49C476.994 94.55 471.204 96.08 463.644 96.08ZM518.279 96.08C512.459 96.08 507.419 94.94 503.159 92.66C498.899 90.32 495.599 87.05 493.259 82.85C490.979 78.59 489.839 73.58 489.839 67.82C489.839 62.06 490.979 57.11 493.259 52.97C495.539 48.77 498.779 45.56 502.979 43.34C507.179 41.06 512.099 39.92 517.739 39.92C523.259 39.92 527.999 41 531.959 43.16C535.919 45.26 538.979 48.32 541.139 52.34C543.299 56.3 544.379 61.01 544.379 66.47V71.15H502.799C503.279 75.71 504.839 79.22 507.479 81.68C510.179 84.08 513.749 85.28 518.189 85.28C521.489 85.28 524.159 84.68 526.199 83.48C528.299 82.22 529.769 80.36 530.609 77.9H544.109C542.849 83.6 539.939 88.07 535.379 91.31C530.879 94.49 525.179 96.08 518.279 96.08ZM503.069 62.06H531.509C530.969 58.34 529.529 55.52 527.189 53.6C524.849 51.62 521.699 50.63 517.739 50.63C513.839 50.63 510.629 51.62 508.109 53.6C505.589 55.58 503.909 58.4 503.069 62.06ZM555.061 95V54.41H548.401V41H562.081V51.44H565.861C567.361 47.84 569.671 45.11 572.791 43.25C575.911 41.39 579.481 40.46 583.501 40.46H588.001V51.98H582.871C578.011 51.98 574.351 53.39 571.891 56.21C569.491 59.03 568.291 62.78 568.291 67.46V95H555.061ZM610.539 95L587.409 41H601.539L617.559 79.88H617.919L633.669 41H647.439L624.309 95H610.539ZM674.672 96.08C668.852 96.08 663.812 94.94 659.552 92.66C655.292 90.32 651.992 87.05 649.652 82.85C647.372 78.59 646.232 73.58 646.232 67.82C646.232 62.06 647.372 57.11 649.652 52.97C651.932 48.77 655.172 45.56 659.372 43.34C663.572 41.06 668.492 39.92 674.132 39.92C679.652 39.92 684.392 41 688.352 43.16C692.312 45.26 695.372 48.32 697.532 52.34C699.692 56.3 700.772 61.01 700.772 66.47V71.15H659.192C659.672 75.71 661.232 79.22 663.872 81.68C666.572 84.08 670.142 85.28 674.582 85.28C677.882 85.28 680.552 84.68 682.592 83.48C684.692 82.22 686.162 80.36 687.002 77.9H700.502C699.242 83.6 696.332 88.07 691.772 91.31C687.272 94.49 681.572 96.08 674.672 96.08ZM659.462 62.06H687.902C687.362 58.34 685.922 55.52 683.582 53.6C681.242 51.62 678.092 50.63 674.132 50.63C670.232 50.63 667.022 51.62 664.502 53.6C661.982 55.58 660.302 58.4 659.462 62.06Z"
    fill="#119CA3" />
</svg>