<svg xmlns="http://www.w3.org/2000/svg" xmlns:xlink="http://www.w3.org/1999/xlink" width="500" zoomAndPan="magnify" viewBox="0 0 375 374.999991" height="500" preserveAspectRatio="xMidYMid meet" version="1.0"><defs><g/><clipPath id="e3a001159f"><rect x="0" width="333" y="0" height="84"/></clipPath></defs><g transform="matrix(1, 0, 0, 1, 19, 145)"><g clip-path="url(#e3a001159f)"><g fill="#545454" fill-opacity="1"><g transform="translate(0.683107, 62.342393)"><g><path d="M 13.078125 -19.734375 C 13.078125 -18.847656 13.535156 -18.207031 14.453125 -17.8125 C 15.378906 -17.425781 17.066406 -17.101562 19.515625 -16.84375 C 22.316406 -16.550781 24.601562 -15.710938 26.375 -14.328125 C 28.15625 -12.941406 29.046875 -11.007812 29.046875 -8.53125 L 29.046875 -8.203125 C 29.046875 -5.460938 28.046875 -3.28125 26.046875 -1.65625 C 24.054688 -0.03125 21.25 0.78125 17.625 0.78125 C 15.476562 0.78125 13.644531 0.503906 12.125 -0.046875 C 10.613281 -0.609375 9.359375 -1.300781 8.359375 -2.125 C 7.367188 -2.957031 6.601562 -3.878906 6.0625 -4.890625 C 5.53125 -5.910156 5.171875 -6.90625 4.984375 -7.875 L 11.421875 -9.96875 C 11.710938 -8.789062 12.328125 -7.757812 13.265625 -6.875 C 14.210938 -5.988281 15.664062 -5.546875 17.625 -5.546875 C 19.363281 -5.546875 20.554688 -5.8125 21.203125 -6.34375 C 21.847656 -6.882812 22.171875 -7.46875 22.171875 -8.09375 C 22.171875 -8.457031 22.085938 -8.796875 21.921875 -9.109375 C 21.753906 -9.429688 21.445312 -9.726562 21 -10 C 20.5625 -10.28125 19.960938 -10.507812 19.203125 -10.6875 C 18.441406 -10.875 17.488281 -11.023438 16.34375 -11.140625 C 13.238281 -11.398438 10.769531 -12.203125 8.9375 -13.546875 C 7.113281 -14.898438 6.203125 -16.890625 6.203125 -19.515625 L 6.203125 -19.84375 C 6.203125 -21.207031 6.5 -22.40625 7.09375 -23.4375 C 7.6875 -24.476562 8.460938 -25.359375 9.421875 -26.078125 C 10.378906 -26.796875 11.484375 -27.335938 12.734375 -27.703125 C 13.992188 -28.078125 15.289062 -28.265625 16.625 -28.265625 C 18.363281 -28.265625 19.867188 -28.050781 21.140625 -27.625 C 22.421875 -27.195312 23.503906 -26.640625 24.390625 -25.953125 C 25.273438 -25.273438 25.992188 -24.519531 26.546875 -23.6875 C 27.097656 -22.863281 27.523438 -22.0625 27.828125 -21.28125 L 21.5 -18.734375 C 21.164062 -19.734375 20.59375 -20.519531 19.78125 -21.09375 C 18.96875 -21.664062 17.914062 -21.953125 16.625 -21.953125 C 15.445312 -21.953125 14.5625 -21.738281 13.96875 -21.3125 C 13.375 -20.882812 13.078125 -20.359375 13.078125 -19.734375 Z M 13.078125 -19.734375 "/></g></g></g><g fill="#545454" fill-opacity="1"><g transform="translate(33.768202, 62.342393)"><g><path d="M 22.9375 -27.484375 L 29.921875 -27.484375 L 29.921875 0 L 22.9375 0 L 22.9375 -3.984375 L 21.953125 -3.984375 C 20.734375 -0.804688 18.109375 0.78125 14.078125 0.78125 C 12.710938 0.78125 11.4375 0.554688 10.25 0.109375 C 9.070312 -0.328125 8.035156 -1.007812 7.140625 -1.9375 C 6.253906 -2.863281 5.5625 -4.019531 5.0625 -5.40625 C 4.570312 -6.789062 4.328125 -8.425781 4.328125 -10.3125 L 4.328125 -27.484375 L 11.3125 -27.484375 L 11.3125 -11.75 C 11.3125 -9.789062 11.769531 -8.265625 12.6875 -7.171875 C 13.613281 -6.085938 15 -5.546875 16.84375 -5.546875 C 18.945312 -5.546875 20.488281 -6.21875 21.46875 -7.5625 C 22.445312 -8.914062 22.9375 -10.753906 22.9375 -13.078125 Z M 22.9375 -27.484375 "/></g></g></g><g fill="#545454" fill-opacity="1"><g transform="translate(66.853296, 62.342393)"><g><path d="M 9.859375 11.078125 L 2.875 11.078125 L 2.875 -27.484375 L 9.859375 -27.484375 L 9.859375 -23.5 L 10.859375 -23.5 C 11.597656 -25.007812 12.671875 -26.179688 14.078125 -27.015625 C 15.484375 -27.847656 17.273438 -28.265625 19.453125 -28.265625 C 21.078125 -28.265625 22.617188 -27.945312 24.078125 -27.3125 C 25.535156 -26.6875 26.8125 -25.773438 27.90625 -24.578125 C 29 -23.378906 29.867188 -21.910156 30.515625 -20.171875 C 31.160156 -18.429688 31.484375 -16.457031 31.484375 -14.25 L 31.484375 -13.25 C 31.484375 -10.988281 31.164062 -8.988281 30.53125 -7.25 C 29.90625 -5.519531 29.054688 -4.050781 27.984375 -2.84375 C 26.910156 -1.644531 25.644531 -0.738281 24.1875 -0.125 C 22.726562 0.476562 21.148438 0.78125 19.453125 0.78125 C 18.191406 0.78125 17.097656 0.648438 16.171875 0.390625 C 15.253906 0.128906 14.453125 -0.21875 13.765625 -0.65625 C 13.085938 -1.101562 12.515625 -1.613281 12.046875 -2.1875 C 11.585938 -2.757812 11.191406 -3.359375 10.859375 -3.984375 L 9.859375 -3.984375 Z M 17.1875 -5.875 C 19.363281 -5.875 21.125 -6.546875 22.46875 -7.890625 C 23.820312 -9.242188 24.5 -11.082031 24.5 -13.40625 L 24.5 -14.078125 C 24.5 -16.398438 23.820312 -18.234375 22.46875 -19.578125 C 21.125 -20.929688 19.363281 -21.609375 17.1875 -21.609375 C 15 -21.609375 13.226562 -20.914062 11.875 -19.53125 C 10.53125 -18.144531 9.859375 -16.328125 9.859375 -14.078125 L 9.859375 -13.40625 C 9.859375 -11.15625 10.53125 -9.335938 11.875 -7.953125 C 13.226562 -6.566406 15 -5.875 17.1875 -5.875 Z M 17.1875 -5.875 "/></g></g></g><g fill="#545454" fill-opacity="1"><g transform="translate(99.938391, 62.342393)"><g><path d="M 10.46875 -11.46875 C 10.507812 -10.65625 10.703125 -9.90625 11.046875 -9.21875 C 11.398438 -8.539062 11.878906 -7.953125 12.484375 -7.453125 C 13.097656 -6.953125 13.800781 -6.5625 14.59375 -6.28125 C 15.394531 -6.007812 16.238281 -5.875 17.125 -5.875 C 18.863281 -5.875 20.191406 -6.175781 21.109375 -6.78125 C 22.035156 -7.394531 22.703125 -8.128906 23.109375 -8.984375 L 29.09375 -5.65625 C 28.757812 -4.945312 28.296875 -4.210938 27.703125 -3.453125 C 27.117188 -2.703125 26.351562 -2.007812 25.40625 -1.375 C 24.46875 -0.75 23.320312 -0.234375 21.96875 0.171875 C 20.625 0.578125 19.046875 0.78125 17.234375 0.78125 C 15.160156 0.78125 13.273438 0.445312 11.578125 -0.21875 C 9.878906 -0.882812 8.410156 -1.84375 7.171875 -3.09375 C 5.941406 -4.351562 4.984375 -5.890625 4.296875 -7.703125 C 3.609375 -9.515625 3.265625 -11.566406 3.265625 -13.859375 L 3.265625 -14.1875 C 3.265625 -16.289062 3.625 -18.210938 4.34375 -19.953125 C 5.070312 -21.691406 6.0625 -23.171875 7.3125 -24.390625 C 8.570312 -25.609375 10.039062 -26.554688 11.71875 -27.234375 C 13.40625 -27.921875 15.207031 -28.265625 17.125 -28.265625 C 19.488281 -28.265625 21.519531 -27.847656 23.21875 -27.015625 C 24.914062 -26.179688 26.316406 -25.128906 27.421875 -23.859375 C 28.535156 -22.585938 29.347656 -21.179688 29.859375 -19.640625 C 30.378906 -18.109375 30.640625 -16.625 30.640625 -15.1875 L 30.640625 -11.46875 Z M 17.0625 -21.953125 C 15.289062 -21.953125 13.847656 -21.5 12.734375 -20.59375 C 11.628906 -19.6875 10.910156 -18.640625 10.578125 -17.453125 L 23.546875 -17.453125 C 23.328125 -18.742188 22.632812 -19.816406 21.46875 -20.671875 C 20.3125 -21.523438 18.84375 -21.953125 17.0625 -21.953125 Z M 17.0625 -21.953125 "/></g></g></g><g fill="#545454" fill-opacity="1"><g transform="translate(133.023486, 62.342393)"><g><path d="M 3 -27.484375 L 14.625 -27.484375 L 14.625 -23.5 L 15.625 -23.5 C 16.144531 -25.007812 17.023438 -26.179688 18.265625 -27.015625 C 19.503906 -27.847656 20.988281 -28.265625 22.71875 -28.265625 C 25.457031 -28.265625 27.65625 -27.40625 29.3125 -25.6875 C 30.976562 -23.96875 31.8125 -21.351562 31.8125 -17.84375 L 31.8125 -16.625 L 24.609375 -15.96875 L 24.609375 -16.734375 C 24.609375 -18.253906 24.21875 -19.460938 23.4375 -20.359375 C 22.664062 -21.265625 21.503906 -21.71875 19.953125 -21.71875 C 18.398438 -21.71875 17.179688 -21.179688 16.296875 -20.109375 C 15.410156 -19.046875 14.96875 -17.515625 14.96875 -15.515625 L 14.96875 -6.65625 L 21.28125 -6.65625 L 21.28125 0 L 2.328125 0 L 2.328125 -6.65625 L 7.984375 -6.65625 L 7.984375 -20.84375 L 3 -20.84375 Z M 3 -27.484375 "/></g></g></g><g fill="#ffadad" fill-opacity="1"><g transform="translate(166.119073, 62.342393)"><g><path d="M 13.078125 -19.734375 C 13.078125 -18.847656 13.535156 -18.207031 14.453125 -17.8125 C 15.378906 -17.425781 17.066406 -17.101562 19.515625 -16.84375 C 22.316406 -16.550781 24.601562 -15.710938 26.375 -14.328125 C 28.15625 -12.941406 29.046875 -11.007812 29.046875 -8.53125 L 29.046875 -8.203125 C 29.046875 -5.460938 28.046875 -3.28125 26.046875 -1.65625 C 24.054688 -0.03125 21.25 0.78125 17.625 0.78125 C 15.476562 0.78125 13.644531 0.503906 12.125 -0.046875 C 10.613281 -0.609375 9.359375 -1.300781 8.359375 -2.125 C 7.367188 -2.957031 6.601562 -3.878906 6.0625 -4.890625 C 5.53125 -5.910156 5.171875 -6.90625 4.984375 -7.875 L 11.421875 -9.96875 C 11.710938 -8.789062 12.328125 -7.757812 13.265625 -6.875 C 14.210938 -5.988281 15.664062 -5.546875 17.625 -5.546875 C 19.363281 -5.546875 20.554688 -5.8125 21.203125 -6.34375 C 21.847656 -6.882812 22.171875 -7.46875 22.171875 -8.09375 C 22.171875 -8.457031 22.085938 -8.796875 21.921875 -9.109375 C 21.753906 -9.429688 21.445312 -9.726562 21 -10 C 20.5625 -10.28125 19.960938 -10.507812 19.203125 -10.6875 C 18.441406 -10.875 17.488281 -11.023438 16.34375 -11.140625 C 13.238281 -11.398438 10.769531 -12.203125 8.9375 -13.546875 C 7.113281 -14.898438 6.203125 -16.890625 6.203125 -19.515625 L 6.203125 -19.84375 C 6.203125 -21.207031 6.5 -22.40625 7.09375 -23.4375 C 7.6875 -24.476562 8.460938 -25.359375 9.421875 -26.078125 C 10.378906 -26.796875 11.484375 -27.335938 12.734375 -27.703125 C 13.992188 -28.078125 15.289062 -28.265625 16.625 -28.265625 C 18.363281 -28.265625 19.867188 -28.050781 21.140625 -27.625 C 22.421875 -27.195312 23.503906 -26.640625 24.390625 -25.953125 C 25.273438 -25.273438 25.992188 -24.519531 26.546875 -23.6875 C 27.097656 -22.863281 27.523438 -22.0625 27.828125 -21.28125 L 21.5 -18.734375 C 21.164062 -19.734375 20.59375 -20.519531 19.78125 -21.09375 C 18.96875 -21.664062 17.914062 -21.953125 16.625 -21.953125 C 15.445312 -21.953125 14.5625 -21.738281 13.96875 -21.3125 C 13.375 -20.882812 13.078125 -20.359375 13.078125 -19.734375 Z M 13.078125 -19.734375 "/></g></g></g><g fill="#ffadad" fill-opacity="1"><g transform="translate(199.204167, 62.342393)"><g><path d="M 10.46875 -11.46875 C 10.507812 -10.65625 10.703125 -9.90625 11.046875 -9.21875 C 11.398438 -8.539062 11.878906 -7.953125 12.484375 -7.453125 C 13.097656 -6.953125 13.800781 -6.5625 14.59375 -6.28125 C 15.394531 -6.007812 16.238281 -5.875 17.125 -5.875 C 18.863281 -5.875 20.191406 -6.175781 21.109375 -6.78125 C 22.035156 -7.394531 22.703125 -8.128906 23.109375 -8.984375 L 29.09375 -5.65625 C 28.757812 -4.945312 28.296875 -4.210938 27.703125 -3.453125 C 27.117188 -2.703125 26.351562 -2.007812 25.40625 -1.375 C 24.46875 -0.75 23.320312 -0.234375 21.96875 0.171875 C 20.625 0.578125 19.046875 0.78125 17.234375 0.78125 C 15.160156 0.78125 13.273438 0.445312 11.578125 -0.21875 C 9.878906 -0.882812 8.410156 -1.84375 7.171875 -3.09375 C 5.941406 -4.351562 4.984375 -5.890625 4.296875 -7.703125 C 3.609375 -9.515625 3.265625 -11.566406 3.265625 -13.859375 L 3.265625 -14.1875 C 3.265625 -16.289062 3.625 -18.210938 4.34375 -19.953125 C 5.070312 -21.691406 6.0625 -23.171875 7.3125 -24.390625 C 8.570312 -25.609375 10.039062 -26.554688 11.71875 -27.234375 C 13.40625 -27.921875 15.207031 -28.265625 17.125 -28.265625 C 19.488281 -28.265625 21.519531 -27.847656 23.21875 -27.015625 C 24.914062 -26.179688 26.316406 -25.128906 27.421875 -23.859375 C 28.535156 -22.585938 29.347656 -21.179688 29.859375 -19.640625 C 30.378906 -18.109375 30.640625 -16.625 30.640625 -15.1875 L 30.640625 -11.46875 Z M 17.0625 -21.953125 C 15.289062 -21.953125 13.847656 -21.5 12.734375 -20.59375 C 11.628906 -19.6875 10.910156 -18.640625 10.578125 -17.453125 L 23.546875 -17.453125 C 23.328125 -18.742188 22.632812 -19.816406 21.46875 -20.671875 C 20.3125 -21.523438 18.84375 -21.953125 17.0625 -21.953125 Z M 17.0625 -21.953125 "/></g></g></g><g fill="#ffadad" fill-opacity="1"><g transform="translate(232.289262, 62.342393)"><g><path d="M 3 -27.484375 L 14.625 -27.484375 L 14.625 -23.5 L 15.625 -23.5 C 16.144531 -25.007812 17.023438 -26.179688 18.265625 -27.015625 C 19.503906 -27.847656 20.988281 -28.265625 22.71875 -28.265625 C 25.457031 -28.265625 27.65625 -27.40625 29.3125 -25.6875 C 30.976562 -23.96875 31.8125 -21.351562 31.8125 -17.84375 L 31.8125 -16.625 L 24.609375 -15.96875 L 24.609375 -16.734375 C 24.609375 -18.253906 24.21875 -19.460938 23.4375 -20.359375 C 22.664062 -21.265625 21.503906 -21.71875 19.953125 -21.71875 C 18.398438 -21.71875 17.179688 -21.179688 16.296875 -20.109375 C 15.410156 -19.046875 14.96875 -17.515625 14.96875 -15.515625 L 14.96875 -6.65625 L 21.28125 -6.65625 L 21.28125 0 L 2.328125 0 L 2.328125 -6.65625 L 7.984375 -6.65625 L 7.984375 -20.84375 L 3 -20.84375 Z M 3 -27.484375 "/></g></g></g><g fill="#ffadad" fill-opacity="1"><g transform="translate(265.374357, 62.342393)"><g><path d="M 2.390625 -27.484375 L 9.921875 -27.484375 L 16.40625 -3.328125 L 17.40625 -3.328125 L 23.890625 -27.484375 L 31.421875 -27.484375 L 23.546875 0 L 10.25 0 Z M 2.390625 -27.484375 "/></g></g></g><g fill="#ffadad" fill-opacity="1"><g transform="translate(298.459452, 62.342393)"><g><path d="M 10.46875 -11.46875 C 10.507812 -10.65625 10.703125 -9.90625 11.046875 -9.21875 C 11.398438 -8.539062 11.878906 -7.953125 12.484375 -7.453125 C 13.097656 -6.953125 13.800781 -6.5625 14.59375 -6.28125 C 15.394531 -6.007812 16.238281 -5.875 17.125 -5.875 C 18.863281 -5.875 20.191406 -6.175781 21.109375 -6.78125 C 22.035156 -7.394531 22.703125 -8.128906 23.109375 -8.984375 L 29.09375 -5.65625 C 28.757812 -4.945312 28.296875 -4.210938 27.703125 -3.453125 C 27.117188 -2.703125 26.351562 -2.007812 25.40625 -1.375 C 24.46875 -0.75 23.320312 -0.234375 21.96875 0.171875 C 20.625 0.578125 19.046875 0.78125 17.234375 0.78125 C 15.160156 0.78125 13.273438 0.445312 11.578125 -0.21875 C 9.878906 -0.882812 8.410156 -1.84375 7.171875 -3.09375 C 5.941406 -4.351562 4.984375 -5.890625 4.296875 -7.703125 C 3.609375 -9.515625 3.265625 -11.566406 3.265625 -13.859375 L 3.265625 -14.1875 C 3.265625 -16.289062 3.625 -18.210938 4.34375 -19.953125 C 5.070312 -21.691406 6.0625 -23.171875 7.3125 -24.390625 C 8.570312 -25.609375 10.039062 -26.554688 11.71875 -27.234375 C 13.40625 -27.921875 15.207031 -28.265625 17.125 -28.265625 C 19.488281 -28.265625 21.519531 -27.847656 23.21875 -27.015625 C 24.914062 -26.179688 26.316406 -25.128906 27.421875 -23.859375 C 28.535156 -22.585938 29.347656 -21.179688 29.859375 -19.640625 C 30.378906 -18.109375 30.640625 -16.625 30.640625 -15.1875 L 30.640625 -11.46875 Z M 17.0625 -21.953125 C 15.289062 -21.953125 13.847656 -21.5 12.734375 -20.59375 C 11.628906 -19.6875 10.910156 -18.640625 10.578125 -17.453125 L 23.546875 -17.453125 C 23.328125 -18.742188 22.632812 -19.816406 21.46875 -20.671875 C 20.3125 -21.523438 18.84375 -21.953125 17.0625 -21.953125 Z M 17.0625 -21.953125 "/></g></g></g></g></g></svg>