<svg width="512" height="512" viewBox="0 0 512 512" fill="none" xmlns="http://www.w3.org/2000/svg">
<rect width="512" height="512" rx="80" fill="#141414"/>
<path d="M90.3138 266.29C90.1056 262.887 90 259.456 90 256C90 253.041 90.0774 250.1 90.2303 247.18H156.42C156.166 250.086 156.036 253.028 156.036 256C156.036 259.474 156.213 262.907 156.559 266.29H90.3138Z" fill="#B2FAB4"/>
<path d="M97.2008 304.512C95.3021 298.289 93.7591 291.911 92.5957 285.401H160.43C162.487 292.098 165.23 298.496 168.576 304.512H168.418L120.713 352.217C116.927 346.904 113.447 341.358 110.297 335.606L141.391 304.512H97.2008Z" fill="#B2FAB4"/>
<path d="M146.983 381.188C142.176 376.999 137.613 372.537 133.317 367.827L180.094 321.049C184.25 325.894 188.861 330.336 193.861 334.309L146.983 381.188Z" fill="#B2FAB4"/>
<path d="M178.305 402.733C172.493 399.649 166.886 396.229 161.509 392.501L208.958 345.052V344.226C215.21 347.566 221.858 350.262 228.815 352.223L228.069 352.969V419.66C221.562 418.558 215.184 417.077 208.958 415.24V372.079L178.305 402.733Z" fill="#B2FAB4"/>
<path d="M266.29 421.686C262.887 421.894 259.456 422 256 422C253.041 422 250.1 421.923 247.18 421.77V355.58C250.086 355.834 253.028 355.964 256 355.964C259.474 355.964 262.907 355.787 266.29 355.441V421.686Z" fill="#B2FAB4"/>
<path d="M304.512 414.799C298.289 416.698 291.911 418.241 285.401 419.404V352.969L284.327 351.894C291.415 349.804 298.174 346.948 304.512 343.424V345.053L351.356 391.897C346.011 395.654 340.435 399.104 334.653 402.22L304.512 372.079V414.799Z" fill="#B2FAB4"/>
<path d="M380.076 366.28C375.839 371.043 371.332 375.561 366.579 379.81L319.762 332.992C324.676 328.918 329.193 324.382 333.248 319.452L380.076 366.28Z" fill="#B2FAB4"/>
<path d="M402.22 334.654C399.103 340.436 395.653 346.012 391.896 351.357L345.052 304.512H343.424C346.948 298.175 349.803 291.414 351.893 284.327L352.968 285.401H419.404C418.241 291.911 416.698 298.289 414.799 304.512H372.079L402.22 334.654Z" fill="#B2FAB4"/>
<path d="M421.77 247.18C421.923 250.1 422 253.041 422 256C422 259.456 421.894 262.887 421.686 266.29H355.441C355.787 262.907 355.964 259.474 355.964 256C355.964 253.028 355.834 250.086 355.58 247.18H421.77Z" fill="#B2FAB4"/>
<path d="M402.732 178.304L372.079 208.958H415.24C417.077 215.184 418.558 221.562 419.66 228.069H352.968L352.223 228.814C350.262 221.858 347.566 215.209 344.226 208.958H345.052L392.501 161.509C396.229 166.885 399.648 172.492 402.732 178.304Z" fill="#B2FAB4"/>
<path d="M367.827 133.317C372.537 137.613 376.999 142.176 381.188 146.983L334.309 193.861C330.336 188.861 325.894 184.25 321.049 180.094L367.827 133.317Z" fill="#B2FAB4"/>
<path d="M335.606 110.297C341.358 113.447 346.904 116.927 352.217 120.713L304.512 168.418V168.576C298.496 165.23 292.098 162.487 285.401 160.43V92.5957C291.911 93.7591 298.289 95.3021 304.512 97.2008V141.391L335.606 110.297Z" fill="#B2FAB4"/>
<path d="M247.18 90.2303C250.1 90.0774 253.041 90 256 90C259.456 90 262.887 90.1056 266.29 90.3138V156.559C262.907 156.213 259.474 156.036 256 156.036C253.028 156.036 250.086 156.166 247.18 156.42V90.2303Z" fill="#B2FAB4"/>
<path d="M208.958 96.7597C215.184 94.9234 221.562 93.4423 228.069 92.3398V159.99C221.227 161.977 214.689 164.675 208.539 167.999L160.643 120.104C165.988 116.347 171.564 112.897 177.346 109.78L208.958 141.392V96.7597Z" fill="#B2FAB4"/>
<path d="M109.78 177.347C112.897 171.565 116.346 165.988 120.103 160.644L167.999 208.54C164.675 214.69 161.977 221.228 159.99 228.069H92.3398C93.4423 221.562 94.9234 215.184 96.7597 208.958H141.391L109.78 177.347Z" fill="#B2FAB4"/>
<path d="M192.548 178.752C187.618 182.807 183.082 187.324 179.008 192.238L132.515 145.745L146.028 132.232L192.548 178.752Z" fill="#B2FAB4"/>
</svg>
