<svg width="705" height="130" viewBox="0 0 705 130" fill="none" xmlns="http://www.w3.org/2000/svg">
<path d="M0.122855 69.0296C0.0413498 67.6969 0 66.3534 0 65.0002C0 63.8416 0.0303123 62.6901 0.0901869 61.5464H26.0078C25.9083 62.6845 25.8574 63.8363 25.8574 65.0002C25.8574 66.3606 25.9268 67.7049 26.0623 69.0296H0.122855Z" fill="#B2FAB4"/>
<path d="M2.81955 83.9958C2.07609 81.5591 1.47193 79.0617 1.01636 76.5127H27.5778C28.3837 79.1351 29.4576 81.6402 30.7677 83.9958H30.7058L12.0261 102.675C10.5438 100.595 9.18101 98.4237 7.94773 96.1712L20.1231 83.9958H2.81955Z" fill="#B2FAB4"/>
<path d="M22.3124 114.019C20.4302 112.379 18.6434 110.632 16.9614 108.788L35.2779 90.4712C36.905 92.3681 38.7105 94.1076 40.6684 95.6633L22.3124 114.019Z" fill="#B2FAB4"/>
<path d="M34.5771 122.456C32.3012 121.248 30.1057 119.909 28.0005 118.449L46.5799 99.8699V99.5464C49.028 100.854 51.6312 101.91 54.355 102.678L54.063 102.97V129.084C51.5151 128.652 49.0177 128.072 46.5799 127.353V110.453L34.5771 122.456Z" fill="#B2FAB4"/>
<path d="M69.0293 129.877C67.6966 129.959 66.3531 130 64.9999 130C63.8413 130 62.6898 129.97 61.5461 129.91V103.992C62.6842 104.092 63.836 104.143 64.9999 104.143C66.3603 104.143 67.7046 104.073 69.0293 103.938V129.877Z" fill="#B2FAB4"/>
<path d="M83.9957 127.18C81.559 127.924 79.0616 128.528 76.5126 128.984V102.97L76.0918 102.549C78.8674 101.73 81.5142 100.612 83.9957 99.2324V99.8702L102.338 118.213C100.245 119.684 98.062 121.035 95.7979 122.255L83.9957 110.453V127.18Z" fill="#B2FAB4"/>
<path d="M113.584 108.182C111.925 110.047 110.16 111.816 108.299 113.48L89.9668 95.1478C91.891 93.5524 93.6598 91.7764 95.2475 89.8457L113.584 108.182Z" fill="#B2FAB4"/>
<path d="M122.255 95.7982C121.034 98.0623 119.684 100.246 118.212 102.338L99.8699 83.9957H99.2324C100.612 81.5145 101.73 78.8671 102.549 76.0918L102.969 76.5126H128.984C128.528 79.0616 127.924 81.559 127.18 83.9957H110.453L122.255 95.7982Z" fill="#B2FAB4"/>
<path d="M129.91 61.5464C129.97 62.6901 130 63.8416 130 65.0002C130 66.3534 129.959 67.6969 129.877 69.0296H103.938C104.073 67.7049 104.143 66.3606 104.143 65.0002C104.143 63.8363 104.092 62.6845 103.992 61.5464H129.91Z" fill="#B2FAB4"/>
<path d="M122.455 34.5769L110.453 46.5799H127.353C128.072 49.0177 128.652 51.5151 129.084 54.063H102.969L102.678 54.3547C101.91 51.6309 100.854 49.0277 99.5464 46.5799H99.8699L118.449 28.0005C119.909 30.1056 121.248 32.3011 122.455 34.5769Z" fill="#B2FAB4"/>
<path d="M108.788 16.9614C110.632 18.6434 112.379 20.4302 114.019 22.3124L95.6633 40.6684C94.1076 38.7105 92.3681 36.905 90.4712 35.2779L108.788 16.9614Z" fill="#B2FAB4"/>
<path d="M96.171 7.94797C98.4235 9.18125 100.595 10.544 102.675 12.0263L83.9956 30.706V30.7679C81.64 29.4578 79.1349 28.3839 76.5125 27.578V1.0166C79.0615 1.47217 81.5589 2.07633 83.9956 2.81979V20.1233L96.171 7.94797Z" fill="#B2FAB4"/>
<path d="M61.5461 0.0901869C62.6898 0.0303123 63.8413 0 64.9999 0C66.3531 0 67.6966 0.0413498 69.0293 0.122855V26.0623C67.7046 25.9268 66.3603 25.8574 64.9999 25.8574C63.836 25.8574 62.6842 25.9083 61.5461 26.0078V0.0901869Z" fill="#B2FAB4"/>
<path d="M46.5801 2.64672C49.0179 1.92768 51.5153 1.34772 54.0632 0.916016V27.4056C51.3843 28.1836 48.8241 29.2401 46.4159 30.5418L27.6616 11.7875C29.7544 10.3163 31.9378 8.96551 34.2019 7.74506L46.5801 20.1232V2.64672Z" fill="#B2FAB4"/>
<path d="M7.74516 34.2019C8.9656 31.9378 10.3164 29.7543 11.7876 27.6616L30.5421 46.4159C29.2404 48.8241 28.1839 51.3843 27.4059 54.0629H0.91626C1.34796 51.515 1.92792 49.0176 2.64696 46.5798H20.1232L7.74516 34.2019Z" fill="#B2FAB4"/>
<path d="M40.1546 34.7523C38.2239 36.34 36.4479 38.1088 34.8525 40.033L16.6475 21.8279L21.9389 16.5366L40.1546 34.7523Z" fill="#B2FAB4"/>
<path d="M183.16 96.0799C175.36 96.0799 169.21 94.4599 164.71 91.2199C160.21 87.9199 157.78 83.3299 157.42 77.4499H170.47C170.89 80.2699 172.18 82.3699 174.34 83.7499C176.5 85.0699 179.62 85.7299 183.7 85.7299C190.6 85.7299 194.05 83.7199 194.05 79.6999C194.05 78.0799 193.51 76.8199 192.43 75.9199C191.41 75.0199 189.67 74.3299 187.21 73.8499L175.33 71.5999C164.77 69.5599 159.49 64.5799 159.49 56.6599C159.49 51.5599 161.5 47.5099 165.52 44.5099C169.54 41.4499 175.09 39.9199 182.17 39.9199C189.25 39.9199 194.86 41.4799 199 44.5999C203.2 47.6599 205.54 52.0099 206.02 57.6499H193.06C192.4 54.9499 191.14 52.9999 189.28 51.7999C187.48 50.5399 184.87 49.9099 181.45 49.9099C178.39 49.9099 176.05 50.3899 174.43 51.3499C172.81 52.3099 172 53.7199 172 55.5799C172 56.9599 172.51 58.0699 173.53 58.9099C174.55 59.7499 176.17 60.3799 178.39 60.7999L190.54 63.1399C196.06 64.2199 200.11 66.0199 202.69 68.5399C205.27 71.0599 206.56 74.4499 206.56 78.7099C206.56 84.1699 204.55 88.4299 200.53 91.4899C196.51 94.5499 190.72 96.0799 183.16 96.0799ZM235.006 95.9899C227.626 95.9899 221.926 94.0399 217.906 90.1399C213.946 86.1799 211.966 80.8399 211.966 74.1199V40.9999H225.376V71.4199C225.376 75.6199 226.456 78.7999 228.616 80.9599C230.776 83.0599 233.986 84.1099 238.246 84.1099C242.746 84.1099 246.196 82.9699 248.596 80.6899C250.996 78.4099 252.196 75.1999 252.196 71.0599V40.9999H265.606V81.5899H272.356V94.9999H258.586V86.3599H254.806C252.706 89.4799 250.066 91.8799 246.886 93.5599C243.766 95.1799 239.806 95.9899 235.006 95.9899ZM280.111 116.6V54.4099H273.451V40.9999H287.221V49.6399H291.001C292.861 46.5199 295.381 44.1199 298.561 42.4399C301.741 40.7599 305.581 39.9199 310.081 39.9199C315.661 39.9199 320.341 41.0899 324.121 43.4299C327.961 45.7099 330.871 48.9499 332.851 53.1499C334.831 57.3499 335.821 62.2999 335.821 67.9999C335.821 73.6999 334.831 78.6499 332.851 82.8499C330.931 87.0499 328.141 90.3199 324.481 92.6599C320.821 94.9399 316.411 96.0799 311.251 96.0799C307.171 96.0799 303.661 95.2999 300.721 93.7399C297.781 92.1799 295.501 89.9899 293.881 87.1699H293.521V116.6H280.111ZM307.651 84.4699C312.511 84.4699 316.171 83.0299 318.631 80.1499C321.151 77.2099 322.411 73.1599 322.411 67.9999C322.411 62.8399 321.151 58.8199 318.631 55.9399C316.171 52.9999 312.511 51.5299 307.651 51.5299C303.391 51.5299 299.971 52.7599 297.391 55.2199C294.811 57.6199 293.521 60.9199 293.521 65.1199V70.8799C293.521 75.0799 294.811 78.4099 297.391 80.8699C299.971 83.2699 303.391 84.4699 307.651 84.4699ZM367.687 96.0799C361.867 96.0799 356.827 94.9399 352.567 92.6599C348.307 90.3199 345.007 87.0499 342.667 82.8499C340.387 78.5899 339.247 73.5799 339.247 67.8199C339.247 62.0599 340.387 57.1099 342.667 52.9699C344.947 48.7699 348.187 45.5599 352.387 43.3399C356.587 41.0599 361.507 39.9199 367.147 39.9199C372.667 39.9199 377.407 40.9999 381.367 43.1599C385.327 45.2599 388.387 48.3199 390.547 52.3399C392.707 56.2999 393.787 61.0099 393.787 66.4699V71.1499H352.207C352.687 75.7099 354.247 79.2199 356.887 81.6799C359.587 84.0799 363.157 85.2799 367.597 85.2799C370.897 85.2799 373.567 84.6799 375.607 83.4799C377.707 82.2199 379.177 80.3599 380.017 77.8999H393.517C392.257 83.5999 389.347 88.0699 384.787 91.3099C380.287 94.4899 374.587 96.0799 367.687 96.0799ZM352.477 62.0599H380.917C380.377 58.3399 378.937 55.5199 376.597 53.5999C374.257 51.6199 371.107 50.6299 367.147 50.6299C363.247 50.6299 360.037 51.6199 357.517 53.5999C354.997 55.5799 353.317 58.3999 352.477 62.0599ZM404.469 94.9999V54.4099H397.809V40.9999H411.489V51.4399H415.269C416.769 47.8399 419.079 45.1099 422.199 43.2499C425.319 41.3899 428.889 40.4599 432.909 40.4599H437.409V51.9799H432.279C427.419 51.9799 423.759 53.3899 421.299 56.2099C418.899 59.0299 417.699 62.7799 417.699 67.4599V94.9999H404.469Z" fill="white"/>
<path d="M463.644 96.0799C455.844 96.0799 449.694 94.4599 445.194 91.2199C440.694 87.9199 438.264 83.3299 437.904 77.4499H450.954C451.374 80.2699 452.664 82.3699 454.824 83.7499C456.984 85.0699 460.104 85.7299 464.184 85.7299C471.084 85.7299 474.534 83.7199 474.534 79.6999C474.534 78.0799 473.994 76.8199 472.914 75.9199C471.894 75.0199 470.154 74.3299 467.694 73.8499L455.814 71.5999C445.254 69.5599 439.974 64.5799 439.974 56.6599C439.974 51.5599 441.984 47.5099 446.004 44.5099C450.024 41.4499 455.574 39.9199 462.654 39.9199C469.734 39.9199 475.344 41.4799 479.484 44.5999C483.684 47.6599 486.024 52.0099 486.504 57.6499H473.544C472.884 54.9499 471.624 52.9999 469.764 51.7999C467.964 50.5399 465.354 49.9099 461.934 49.9099C458.874 49.9099 456.534 50.3899 454.914 51.3499C453.294 52.3099 452.484 53.7199 452.484 55.5799C452.484 56.9599 452.994 58.0699 454.014 58.9099C455.034 59.7499 456.654 60.3799 458.874 60.7999L471.024 63.1399C476.544 64.2199 480.594 66.0199 483.174 68.5399C485.754 71.0599 487.044 74.4499 487.044 78.7099C487.044 84.1699 485.034 88.4299 481.014 91.4899C476.994 94.5499 471.204 96.0799 463.644 96.0799ZM518.279 96.0799C512.459 96.0799 507.419 94.9399 503.159 92.6599C498.899 90.3199 495.599 87.0499 493.259 82.8499C490.979 78.5899 489.839 73.5799 489.839 67.8199C489.839 62.0599 490.979 57.1099 493.259 52.9699C495.539 48.7699 498.779 45.5599 502.979 43.3399C507.179 41.0599 512.099 39.9199 517.739 39.9199C523.259 39.9199 527.999 40.9999 531.959 43.1599C535.919 45.2599 538.979 48.3199 541.139 52.3399C543.299 56.2999 544.379 61.0099 544.379 66.4699V71.1499H502.799C503.279 75.7099 504.839 79.2199 507.479 81.6799C510.179 84.0799 513.749 85.2799 518.189 85.2799C521.489 85.2799 524.159 84.6799 526.199 83.4799C528.299 82.2199 529.769 80.3599 530.609 77.8999H544.109C542.849 83.5999 539.939 88.0699 535.379 91.3099C530.879 94.4899 525.179 96.0799 518.279 96.0799ZM503.069 62.0599H531.509C530.969 58.3399 529.529 55.5199 527.189 53.5999C524.849 51.6199 521.699 50.6299 517.739 50.6299C513.839 50.6299 510.629 51.6199 508.109 53.5999C505.589 55.5799 503.909 58.3999 503.069 62.0599ZM555.061 94.9999V54.4099H548.401V40.9999H562.081V51.4399H565.861C567.361 47.8399 569.671 45.1099 572.791 43.2499C575.911 41.3899 579.481 40.4599 583.501 40.4599H588.001V51.9799H582.871C578.011 51.9799 574.351 53.3899 571.891 56.2099C569.491 59.0299 568.291 62.7799 568.291 67.4599V94.9999H555.061ZM610.539 94.9999L587.409 40.9999H601.539L617.559 79.8799H617.919L633.669 40.9999H647.439L624.309 94.9999H610.539ZM674.672 96.0799C668.852 96.0799 663.812 94.9399 659.552 92.6599C655.292 90.3199 651.992 87.0499 649.652 82.8499C647.372 78.5899 646.232 73.5799 646.232 67.8199C646.232 62.0599 647.372 57.1099 649.652 52.9699C651.932 48.7699 655.172 45.5599 659.372 43.3399C663.572 41.0599 668.492 39.9199 674.132 39.9199C679.652 39.9199 684.392 40.9999 688.352 43.1599C692.312 45.2599 695.372 48.3199 697.532 52.3399C699.692 56.2999 700.772 61.0099 700.772 66.4699V71.1499H659.192C659.672 75.7099 661.232 79.2199 663.872 81.6799C666.572 84.0799 670.142 85.2799 674.582 85.2799C677.882 85.2799 680.552 84.6799 682.592 83.4799C684.692 82.2199 686.162 80.3599 687.002 77.8999H700.502C699.242 83.5999 696.332 88.0699 691.772 91.3099C687.272 94.4899 681.572 96.0799 674.672 96.0799ZM659.462 62.0599H687.902C687.362 58.3399 685.922 55.5199 683.582 53.5999C681.242 51.6199 678.092 50.6299 674.132 50.6299C670.232 50.6299 667.022 51.6199 664.502 53.5999C661.982 55.5799 660.302 58.3999 659.462 62.0599Z" fill="white"/>
</svg>
