<svg width="130" height="130" viewBox="0 0 130 130" fill="none" xmlns="http://www.w3.org/2000/svg">
<path d="M0.122855 69.0294C0.0413498 67.6967 0 66.3532 0 65C0 63.8414 0.0303123 62.6899 0.0901869 61.5462H26.0078C25.9083 62.6843 25.8574 63.8361 25.8574 65C25.8574 66.3604 25.9268 67.7047 26.0623 69.0294H0.122855Z" fill="white"/>
<path d="M2.81957 83.9956C2.07611 81.5589 1.47195 79.0615 1.01638 76.5125H27.5778C28.3837 79.1349 29.4576 81.64 30.7677 83.9956H30.7058L12.0261 102.675C10.5438 100.595 9.18103 98.4235 7.94775 96.171L20.1231 83.9956H2.81957Z" fill="white"/>
<path d="M22.3125 114.019C20.4303 112.379 18.6435 110.632 16.9615 108.788L35.278 90.4712C36.9051 92.3681 38.7106 94.1076 40.6685 95.6633L22.3125 114.019Z" fill="white"/>
<path d="M34.5772 122.456C32.3013 121.248 30.1058 119.909 28.0006 118.449L46.58 99.8698V99.5463C49.0281 100.854 51.6313 101.91 54.3551 102.678L54.0631 102.97V129.084C51.5152 128.652 49.0178 128.072 46.58 127.353V110.453L34.5772 122.456Z" fill="white"/>
<path d="M69.0294 129.877C67.6967 129.959 66.3532 130 65 130C63.8414 130 62.6899 129.97 61.5462 129.91V103.992C62.6843 104.092 63.8361 104.143 65 104.143C66.3604 104.143 67.7047 104.073 69.0294 103.938V129.877Z" fill="white"/>
<path d="M83.9956 127.18C81.5589 127.924 79.0615 128.528 76.5125 128.984V102.97L76.0917 102.549C78.8673 101.73 81.5141 100.612 83.9956 99.2323V99.8701L102.338 118.213C100.245 119.684 98.0619 121.035 95.7978 122.255L83.9956 110.453V127.18Z" fill="white"/>
<path d="M113.584 108.182C111.925 110.047 110.16 111.816 108.299 113.48L89.9669 95.1476C91.8911 93.5522 93.6599 91.7762 95.2476 89.8455L113.584 108.182Z" fill="white"/>
<path d="M122.255 95.7981C121.034 98.0622 119.684 100.246 118.212 102.338L99.8698 83.9956H99.2323C100.612 81.5144 101.73 78.867 102.549 76.0917L102.969 76.5125H128.984C128.528 79.0615 127.924 81.5589 127.18 83.9956H110.453L122.255 95.7981Z" fill="white"/>
<path d="M129.91 61.5462C129.97 62.6899 130 63.8414 130 65C130 66.3532 129.959 67.6967 129.877 69.0294H103.938C104.073 67.7047 104.143 66.3604 104.143 65C104.143 63.8361 104.092 62.6843 103.992 61.5462H129.91Z" fill="white"/>
<path d="M122.455 34.577L110.453 46.58H127.353C128.072 49.0178 128.652 51.5152 129.084 54.0631H102.969L102.678 54.3548C101.91 51.631 100.854 49.0278 99.5463 46.58H99.8698L118.449 28.0006C119.909 30.1057 121.248 32.3012 122.455 34.577Z" fill="white"/>
<path d="M108.788 16.9615C110.632 18.6435 112.379 20.4303 114.019 22.3125L95.6633 40.6685C94.1076 38.7106 92.3681 36.9051 90.4712 35.278L108.788 16.9615Z" fill="white"/>
<path d="M96.171 7.94775C98.4235 9.18103 100.595 10.5438 102.675 12.0261L83.9956 30.7058V30.7677C81.64 29.4576 79.1349 28.3837 76.5125 27.5778V1.01638C79.0615 1.47195 81.5589 2.07611 83.9956 2.81957V20.1231L96.171 7.94775Z" fill="white"/>
<path d="M61.5462 0.0901869C62.6899 0.0303123 63.8414 0 65 0C66.3532 0 67.6967 0.0413498 69.0294 0.122855V26.0623C67.7047 25.9268 66.3604 25.8574 65 25.8574C63.8361 25.8574 62.6843 25.9083 61.5462 26.0078V0.0901869Z" fill="white"/>
<path d="M46.58 2.64688C49.0178 1.92784 51.5152 1.34788 54.0631 0.916179V27.4058C51.3842 28.1838 48.824 29.2403 46.4158 30.542L27.6615 11.7877C29.7543 10.3165 31.9377 8.96567 34.2018 7.74522L46.58 20.1234V2.64688Z" fill="white"/>
<path d="M7.74508 34.2021C8.96552 31.938 10.3163 29.7545 11.7875 27.6618L30.542 46.4161C29.2403 48.8243 28.1838 51.3845 27.4058 54.0631H0.916179C1.34788 51.5152 1.92784 49.0178 2.64688 46.58H20.1231L7.74508 34.2021Z" fill="white"/>
<path d="M40.1545 34.7524C38.2238 36.3401 36.4478 38.1089 34.8524 40.0331L16.6474 21.828L21.9388 16.5367L40.1545 34.7524Z" fill="white"/>
</svg>
