<svg xmlns="http://www.w3.org/2000/svg" viewBox="0 0 920 480" fill="none">
  <defs>
    <style>
      text { font-family: 'Inter', -apple-system, system-ui, sans-serif; }
    </style>
    <marker id="arr" markerWidth="7" markerHeight="5" refX="7" refY="2.5" orient="auto">
      <path d="M0,0 L7,2.5 L0,5" fill="none" stroke="#555" stroke-width="1"/>
    </marker>
    <marker id="arr-teal" markerWidth="7" markerHeight="5" refX="7" refY="2.5" orient="auto">
      <path d="M0,0 L7,2.5 L0,5" fill="none" stroke="#119CA3" stroke-width="1"/>
    </marker>
  </defs>

  <!-- Background -->
  <rect width="920" height="480" rx="12" fill="#141414"/>

  <!-- ===== CLAUDE LOGO (top-left, floating) ===== -->
  <g transform="translate(168, 36) scale(0.18)">
    <path fill="#D97757" d="m50.228 170.321 50.357-28.257.843-2.463-.843-1.361h-2.462l-8.426-.518-28.775-.778-24.952-1.037-24.175-1.296-6.092-1.297L0 125.796l.583-3.759 5.12-3.434 7.324.648 16.202 1.101 24.304 1.685 17.629 1.037 26.118 2.722h4.148l.583-1.685-1.426-1.037-1.101-1.037-25.147-17.045-27.22-18.017-14.258-10.37-7.713-5.25-3.888-4.925-1.685-10.758 7-7.713 9.397.649 2.398.648 9.527 7.323 20.35 15.75L94.817 91.9l3.889 3.24 1.555-1.102.195-.777-1.75-2.917-14.453-26.118-15.425-26.572-6.87-11.018-1.814-6.61c-.648-2.723-1.102-4.991-1.102-7.778l7.972-10.823L71.42 0 82.05 1.426l4.472 3.888 6.61 15.101 10.694 23.786 16.591 32.34 4.861 9.592 2.592 8.879.973 2.722h1.685v-1.556l1.36-18.211 2.528-22.36 2.463-28.776.843-8.1 4.018-9.722 7.971-5.25 6.222 2.981 5.12 7.324-.713 4.73-3.046 19.768-5.962 30.98-3.889 20.739h2.268l2.593-2.593 10.499-13.934 17.628-22.036 7.778-8.749 9.073-9.657 5.833-4.601h11.018l8.1 12.055-3.628 12.443-11.342 14.388-9.398 12.184-13.48 18.147-8.426 14.518.778 1.166 2.01-.194 30.46-6.481 16.462-2.982 19.637-3.37 8.88 4.148.971 4.213-3.5 8.62-20.998 5.184-24.628 4.926-36.682 8.685-.454.324.519.648 16.526 1.555 7.065.389h17.304l32.21 2.398 8.426 5.574 5.055 6.805-.843 5.184-12.962 6.611-17.498-4.148-40.83-9.721-14-3.5h-1.944v1.167l11.666 11.406 21.387 19.314 26.767 24.887 1.36 6.157-3.434 4.86-3.63-.518-23.526-17.693-9.073-7.972-20.545-17.304h-1.36v1.814l4.73 6.935 25.017 37.59 1.296 11.536-1.814 3.76-6.481 2.268-7.13-1.297-14.647-20.544-15.1-23.138-12.185-20.739-1.49.843-7.194 77.448-3.37 3.953-7.778 2.981-6.48-4.925-3.436-7.972 3.435-15.749 4.148-20.544 3.37-16.333 3.046-20.285 1.815-6.74-.13-.454-1.49.194-15.295 20.999-23.267 31.433-18.406 19.702-4.407 1.75-7.648-3.954.713-7.064 4.277-6.286 25.47-32.405 15.36-20.092 9.917-11.6-.065-1.686h-.583L44.07 198.125l-12.055 1.555-5.185-4.86.648-7.972 2.463-2.593 20.35-13.999-.064.065Z"/>
  </g>

  <!-- ===== MCP box ===== -->
  <rect x="142" y="88" width="110" height="42" rx="6" fill="#1e1e1e" stroke="#e8590c" stroke-width="1"/>
  <text x="197" y="114" text-anchor="middle" fill="#e8590c" font-size="13" font-weight="500">MCP</text>

  <!-- ===== HARNESS box (main, large) ===== -->
  <rect x="100" y="160" width="195" height="160" rx="8" fill="#2a1a14" stroke="#e8590c" stroke-width="1.5"/>
  <!-- Claude logo inside harness -->
  <g transform="translate(160, 180) scale(0.28)" opacity="0.25">
    <path fill="#D97757" d="m50.228 170.321 50.357-28.257.843-2.463-.843-1.361h-2.462l-8.426-.518-28.775-.778-24.952-1.037-24.175-1.296-6.092-1.297L0 125.796l.583-3.759 5.12-3.434 7.324.648 16.202 1.101 24.304 1.685 17.629 1.037 26.118 2.722h4.148l.583-1.685-1.426-1.037-1.101-1.037-25.147-17.045-27.22-18.017-14.258-10.37-7.713-5.25-3.888-4.925-1.685-10.758 7-7.713 9.397.649 2.398.648 9.527 7.323 20.35 15.75L94.817 91.9l3.889 3.24 1.555-1.102.195-.777-1.75-2.917-14.453-26.118-15.425-26.572-6.87-11.018-1.814-6.61c-.648-2.723-1.102-4.991-1.102-7.778l7.972-10.823L71.42 0 82.05 1.426l4.472 3.888 6.61 15.101 10.694 23.786 16.591 32.34 4.861 9.592 2.592 8.879.973 2.722h1.685v-1.556l1.36-18.211 2.528-22.36 2.463-28.776.843-8.1 4.018-9.722 7.971-5.25 6.222 2.981 5.12 7.324-.713 4.73-3.046 19.768-5.962 30.98-3.889 20.739h2.268l2.593-2.593 10.499-13.934 17.628-22.036 7.778-8.749 9.073-9.657 5.833-4.601h11.018l8.1 12.055-3.628 12.443-11.342 14.388-9.398 12.184-13.48 18.147-8.426 14.518.778 1.166 2.01-.194 30.46-6.481 16.462-2.982 19.637-3.37 8.88 4.148.971 4.213-3.5 8.62-20.998 5.184-24.628 4.926-36.682 8.685-.454.324.519.648 16.526 1.555 7.065.389h17.304l32.21 2.398 8.426 5.574 5.055 6.805-.843 5.184-12.962 6.611-17.498-4.148-40.83-9.721-14-3.5h-1.944v1.167l11.666 11.406 21.387 19.314 26.767 24.887 1.36 6.157-3.434 4.86-3.63-.518-23.526-17.693-9.073-7.972-20.545-17.304h-1.36v1.814l4.73 6.935 25.017 37.59 1.296 11.536-1.814 3.76-6.481 2.268-7.13-1.297-14.647-20.544-15.1-23.138-12.185-20.739-1.49.843-7.194 77.448-3.37 3.953-7.778 2.981-6.48-4.925-3.436-7.972 3.435-15.749 4.148-20.544 3.37-16.333 3.046-20.285 1.815-6.74-.13-.454-1.49.194-15.295 20.999-23.267 31.433-18.406 19.702-4.407 1.75-7.648-3.954.713-7.064 4.277-6.286 25.47-32.405 15.36-20.092 9.917-11.6-.065-1.686h-.583L44.07 198.125l-12.055 1.555-5.185-4.86.648-7.972 2.463-2.593 20.35-13.999-.064.065Z"/>
  </g>
  <text x="197" y="280" text-anchor="middle" fill="#e8590c" font-size="15" font-weight="600">Harness</text>
  <text x="197" y="298" text-anchor="middle" fill="#555" font-size="10">hosted by Anthropic</text>

  <!-- ===== Session box ===== -->
  <rect x="50" y="360" width="120" height="42" rx="6" fill="#1e1e1e" stroke="#e8590c" stroke-width="1"/>
  <text x="110" y="386" text-anchor="middle" fill="#e8590c" font-size="13" font-weight="500">Session</text>

  <!-- ===== Orchestration box ===== -->
  <rect x="210" y="360" width="140" height="42" rx="6" fill="#1e1e1e" stroke="#e8590c" stroke-width="1"/>
  <text x="280" y="386" text-anchor="middle" fill="#e8590c" font-size="13" font-weight="500">Orchestration</text>

  <!-- Arrows inside Claude side -->
  <line x1="197" y1="130" x2="197" y2="160" stroke="#555" stroke-width="1" marker-end="url(#arr)"/>
  <line x1="155" y1="320" x2="110" y2="360" stroke="#555" stroke-width="1" marker-end="url(#arr)"/>
  <line x1="240" y1="320" x2="280" y2="360" stroke="#555" stroke-width="1" marker-end="url(#arr)"/>

  <!-- ===== SUPERSERVE ZONE (right, dashed container) ===== -->
  <rect x="460" y="40" width="420" height="400" rx="12" stroke="#119CA3" stroke-width="1.5" stroke-dasharray="8 4" opacity="0.4" fill="none"/>

  <!-- Superserve logo (top of zone, large) -->
  <g transform="translate(630, 52) scale(0.3)">
    <path d="M0.122855 69.0294C0.0413498 67.6967 0 66.3532 0 65C0 63.8414 0.0303123 62.6899 0.0901869 61.5462H26.0078C25.9083 62.6843 25.8574 63.8361 25.8574 65C25.8574 66.3604 25.9268 67.7047 26.0623 69.0294H0.122855Z" fill="#B2FAB4"/>
    <path d="M2.81957 83.9956C2.07611 81.5589 1.47195 79.0615 1.01638 76.5125H27.5778C28.3837 79.1349 29.4576 81.64 30.7677 83.9956H30.7058L12.0261 102.675C10.5438 100.595 9.18103 98.4235 7.94775 96.171L20.1231 83.9956H2.81957Z" fill="#B2FAB4"/>
    <path d="M22.3125 114.019C20.4303 112.379 18.6435 110.632 16.9615 108.788L35.278 90.4712C36.9051 92.3681 38.7106 94.1076 40.6685 95.6633L22.3125 114.019Z" fill="#B2FAB4"/>
    <path d="M34.5772 122.456C32.3013 121.248 30.1058 119.909 28.0006 118.449L46.58 99.8698V99.5463C49.0281 100.854 51.6313 101.91 54.3551 102.678L54.0631 102.97V129.084C51.5152 128.652 49.0178 128.072 46.58 127.353V110.453L34.5772 122.456Z" fill="#B2FAB4"/>
    <path d="M69.0294 129.877C67.6967 129.959 66.3532 130 65 130C63.8414 130 62.6899 129.97 61.5462 129.91V103.992C62.6843 104.092 63.8361 104.143 65 104.143C66.3604 104.143 67.7047 104.073 69.0294 103.938V129.877Z" fill="#B2FAB4"/>
    <path d="M83.9956 127.18C81.5589 127.924 79.0615 128.528 76.5125 128.984V102.97L76.0917 102.549C78.8673 101.73 81.5141 100.612 83.9956 99.2323V99.8701L102.338 118.213C100.245 119.684 98.0619 121.035 95.7978 122.255L83.9956 110.453V127.18Z" fill="#B2FAB4"/>
    <path d="M113.584 108.182C111.925 110.047 110.16 111.816 108.299 113.48L89.9669 95.1476C91.8911 93.5522 93.6599 91.7762 95.2476 89.8455L113.584 108.182Z" fill="#B2FAB4"/>
    <path d="M122.255 95.7981C121.034 98.0622 119.684 100.246 118.212 102.338L99.8698 83.9956H99.2323C100.612 81.5144 101.73 78.867 102.549 76.0917L102.969 76.5125H128.984C128.528 79.0615 127.924 81.5589 127.18 83.9956H110.453L122.255 95.7981Z" fill="#B2FAB4"/>
    <path d="M129.91 61.5462C129.97 62.6899 130 63.8414 130 65C130 66.3532 129.959 67.6967 129.877 69.0294H103.938C104.073 67.7047 104.143 66.3604 104.143 65C104.143 63.8361 104.092 62.6843 103.992 61.5462H129.91Z" fill="#B2FAB4"/>
    <path d="M122.455 34.577L110.453 46.58H127.353C128.072 49.0178 128.652 51.5152 129.084 54.0631H102.969L102.678 54.3548C101.91 51.631 100.854 49.0278 99.5463 46.58H99.8698L118.449 28.0006C119.909 30.1057 121.248 32.3012 122.455 34.577Z" fill="#B2FAB4"/>
    <path d="M108.788 16.9615C110.632 18.6435 112.379 20.4303 114.019 22.3125L95.6633 40.6685C94.1076 38.7106 92.3681 36.9051 90.4712 35.278L108.788 16.9615Z" fill="#B2FAB4"/>
    <path d="M96.171 7.94775C98.4235 9.18103 100.595 10.5438 102.675 12.0261L83.9956 30.7058V30.7677C81.64 29.4576 79.1349 28.3837 76.5125 27.5778V1.01638C79.0615 1.47195 81.5589 2.07611 83.9956 2.81957V20.1231L96.171 7.94775Z" fill="#B2FAB4"/>
    <path d="M61.5462 0.0901869C62.6899 0.0303123 63.8414 0 65 0C66.3532 0 67.6967 0.0413498 69.0294 0.122855V26.0623C67.7047 25.9268 66.3604 25.8574 65 25.8574C63.8361 25.8574 62.6843 25.9083 61.5462 26.0078V0.0901869Z" fill="#B2FAB4"/>
    <path d="M46.58 2.64688C49.0178 1.92784 51.5152 1.34788 54.0631 0.916179V27.4058C51.3842 28.1838 48.824 29.2403 46.4158 30.542L27.6615 11.7877C29.7543 10.3165 31.9377 8.96567 34.2018 7.74522L46.58 20.1234V2.64688Z" fill="#B2FAB4"/>
    <path d="M7.74508 34.2021C8.96552 31.938 10.3163 29.7545 11.7875 27.6618L30.542 46.4161C29.2403 48.8243 28.1838 51.3845 27.4058 54.0631H0.916179C1.34788 51.5152 1.92784 49.0178 2.64688 46.58H20.1231L7.74508 34.2021Z" fill="#B2FAB4"/>
    <path d="M40.1545 34.7524C38.2238 36.3401 36.4478 38.1089 34.8524 40.0331L16.6474 21.828L21.9388 16.5367L40.1545 34.7524Z" fill="#B2FAB4"/>
  </g>

  <!-- ===== SANDBOXES box (stacked, with logo inside) ===== -->
  <rect x="530" y="130" width="200" height="200" rx="8" fill="#0a3d3f" stroke="#119CA3" stroke-width="0.5" opacity="0.25" transform="translate(10, 10)"/>
  <rect x="530" y="130" width="200" height="200" rx="8" fill="#0a3d3f" stroke="#119CA3" stroke-width="0.5" opacity="0.4" transform="translate(5, 5)"/>
  <rect x="530" y="130" width="200" height="200" rx="8" fill="#0d474a" stroke="#119CA3" stroke-width="1.5"/>
  <!-- Superserve icon watermark inside -->
  <g transform="translate(585, 160) scale(0.65)" opacity="0.15">
    <path d="M0.122855 69.0294C0.0413498 67.6967 0 66.3532 0 65C0 63.8414 0.0303123 62.6899 0.0901869 61.5462H26.0078C25.9083 62.6843 25.8574 63.8361 25.8574 65C25.8574 66.3604 25.9268 67.7047 26.0623 69.0294H0.122855Z" fill="#B2FAB4"/>
    <path d="M2.81957 83.9956C2.07611 81.5589 1.47195 79.0615 1.01638 76.5125H27.5778C28.3837 79.1349 29.4576 81.64 30.7677 83.9956H30.7058L12.0261 102.675C10.5438 100.595 9.18103 98.4235 7.94775 96.171L20.1231 83.9956H2.81957Z" fill="#B2FAB4"/>
    <path d="M22.3125 114.019C20.4303 112.379 18.6435 110.632 16.9615 108.788L35.278 90.4712C36.9051 92.3681 38.7106 94.1076 40.6685 95.6633L22.3125 114.019Z" fill="#B2FAB4"/>
    <path d="M34.5772 122.456C32.3013 121.248 30.1058 119.909 28.0006 118.449L46.58 99.8698V99.5463C49.0281 100.854 51.6313 101.91 54.3551 102.678L54.0631 102.97V129.084C51.5152 128.652 49.0178 128.072 46.58 127.353V110.453L34.5772 122.456Z" fill="#B2FAB4"/>
    <path d="M69.0294 129.877C67.6967 129.959 66.3532 130 65 130C63.8414 130 62.6899 129.97 61.5462 129.91V103.992C62.6843 104.092 63.8361 104.143 65 104.143C66.3604 104.143 67.7047 104.073 69.0294 103.938V129.877Z" fill="#B2FAB4"/>
    <path d="M83.9956 127.18C81.5589 127.924 79.0615 128.528 76.5125 128.984V102.97L76.0917 102.549C78.8673 101.73 81.5141 100.612 83.9956 99.2323V99.8701L102.338 118.213C100.245 119.684 98.0619 121.035 95.7978 122.255L83.9956 110.453V127.18Z" fill="#B2FAB4"/>
    <path d="M113.584 108.182C111.925 110.047 110.16 111.816 108.299 113.48L89.9669 95.1476C91.8911 93.5522 93.6599 91.7762 95.2476 89.8455L113.584 108.182Z" fill="#B2FAB4"/>
    <path d="M122.255 95.7981C121.034 98.0622 119.684 100.246 118.212 102.338L99.8698 83.9956H99.2323C100.612 81.5144 101.73 78.867 102.549 76.0917L102.969 76.5125H128.984C128.528 79.0615 127.924 81.5589 127.18 83.9956H110.453L122.255 95.7981Z" fill="#B2FAB4"/>
    <path d="M129.91 61.5462C129.97 62.6899 130 63.8414 130 65C130 66.3532 129.959 67.6967 129.877 69.0294H103.938C104.073 67.7047 104.143 66.3604 104.143 65C104.143 63.8361 104.092 62.6843 103.992 61.5462H129.91Z" fill="#B2FAB4"/>
    <path d="M122.455 34.577L110.453 46.58H127.353C128.072 49.0178 128.652 51.5152 129.084 54.0631H102.969L102.678 54.3548C101.91 51.631 100.854 49.0278 99.5463 46.58H99.8698L118.449 28.0006C119.909 30.1057 121.248 32.3012 122.455 34.577Z" fill="#B2FAB4"/>
    <path d="M108.788 16.9615C110.632 18.6435 112.379 20.4303 114.019 22.3125L95.6633 40.6685C94.1076 38.7106 92.3681 36.9051 90.4712 35.278L108.788 16.9615Z" fill="#B2FAB4"/>
    <path d="M96.171 7.94775C98.4235 9.18103 100.595 10.5438 102.675 12.0261L83.9956 30.7058V30.7677C81.64 29.4576 79.1349 28.3837 76.5125 27.5778V1.01638C79.0615 1.47195 81.5589 2.07611 83.9956 2.81957V20.1231L96.171 7.94775Z" fill="#B2FAB4"/>
    <path d="M61.5462 0.0901869C62.6899 0.0303123 63.8414 0 65 0C66.3532 0 67.6967 0.0413498 69.0294 0.122855V26.0623C67.7047 25.9268 66.3604 25.8574 65 25.8574C63.8361 25.8574 62.6843 25.9083 61.5462 26.0078V0.0901869Z" fill="#B2FAB4"/>
    <path d="M46.58 2.64688C49.0178 1.92784 51.5152 1.34788 54.0631 0.916179V27.4058C51.3842 28.1838 48.824 29.2403 46.4158 30.542L27.6615 11.7877C29.7543 10.3165 31.9377 8.96567 34.2018 7.74522L46.58 20.1234V2.64688Z" fill="#B2FAB4"/>
    <path d="M7.74508 34.2021C8.96552 31.938 10.3163 29.7545 11.7875 27.6618L30.542 46.4161C29.2403 48.8243 28.1838 51.3845 27.4058 54.0631H0.916179C1.34788 51.5152 1.92784 49.0178 2.64688 46.58H20.1231L7.74508 34.2021Z" fill="#B2FAB4"/>
    <path d="M40.1545 34.7524C38.2238 36.3401 36.4478 38.1089 34.8524 40.0331L16.6474 21.828L21.9388 16.5367L40.1545 34.7524Z" fill="#B2FAB4"/>
  </g>
  <text x="630" y="298" text-anchor="middle" fill="#63e6be" font-size="15" font-weight="600">Sandboxes</text>
  <text x="630" y="316" text-anchor="middle" fill="#555" font-size="10">hosted on Superserve</text>

  <!-- ===== Feature boxes (right side) ===== -->
  <rect x="780" y="140" width="85" height="38" rx="6" fill="#1e1e1e" stroke="#555" stroke-width="0.5"/>
  <text x="822" y="164" text-anchor="middle" fill="#119CA3" font-size="11" font-weight="500">Templates</text>

  <rect x="780" y="200" width="85" height="38" rx="6" fill="#1e1e1e" stroke="#555" stroke-width="0.5"/>
  <text x="822" y="224" text-anchor="middle" fill="#119CA3" font-size="11" font-weight="500">Pause/Resume</text>

  <rect x="780" y="260" width="85" height="38" rx="6" fill="#1e1e1e" stroke="#555" stroke-width="0.5"/>
  <text x="822" y="284" text-anchor="middle" fill="#119CA3" font-size="11" font-weight="500">Network Rules</text>

  <!-- Arrows: Sandboxes → features -->
  <line x1="730" y1="190" x2="780" y2="164" stroke="#444" stroke-width="1" marker-end="url(#arr)"/>
  <line x1="730" y1="220" x2="780" y2="220" stroke="#444" stroke-width="1" marker-end="url(#arr)"/>
  <line x1="730" y1="250" x2="780" y2="274" stroke="#444" stroke-width="1" marker-end="url(#arr)"/>

  <!-- ===== CROSS-ZONE arrows (dotted, clean) ===== -->
  <line x1="295" y1="220" x2="530" y2="200" stroke="#555" stroke-width="1.5" stroke-dasharray="6 4" marker-end="url(#arr)"/>
  <line x1="530" y1="260" x2="295" y2="250" stroke="#555" stroke-width="1.5" stroke-dasharray="6 4" marker-end="url(#arr)"/>
</svg>
