<svg xmlns="http://www.w3.org/2000/svg" xmlns:xlink="http://www.w3.org/1999/xlink" width="500" zoomAndPan="magnify" viewBox="30 115 315 170" height="500" preserveAspectRatio="xMidYMid meet" version="1.0"><defs><g/><clipPath id="669e07c733"><rect x="0" width="277" y="0" height="139"/></clipPath></defs><rect x="-37.5" width="450" fill="#ffffff" y="-37.499999" height="449.999989" fill-opacity="1"/><rect x="-37.5" width="450" fill="#000000" y="-37.499999" height="449.999989" fill-opacity="1"/><g fill="#ffffff" fill-opacity="1"><g transform="translate(48.014152, 178.817098)"><g><path d="M 21.828125 -32.9375 C 21.828125 -31.457031 22.597656 -30.390625 24.140625 -29.734375 C 25.679688 -29.085938 28.488281 -28.550781 32.5625 -28.125 C 37.25 -27.632812 41.070312 -26.234375 44.03125 -23.921875 C 47 -21.609375 48.484375 -18.382812 48.484375 -14.25 L 48.484375 -13.6875 C 48.484375 -9.125 46.816406 -5.484375 43.484375 -2.765625 C 40.148438 -0.0546875 35.460938 1.296875 29.421875 1.296875 C 25.835938 1.296875 22.78125 0.832031 20.25 -0.09375 C 17.726562 -1.019531 15.632812 -2.175781 13.96875 -3.5625 C 12.300781 -4.945312 11.019531 -6.488281 10.125 -8.1875 C 9.226562 -9.882812 8.628906 -11.535156 8.328125 -13.140625 L 19.0625 -16.65625 C 19.550781 -14.675781 20.582031 -12.945312 22.15625 -11.46875 C 23.726562 -9.988281 26.148438 -9.25 29.421875 -9.25 C 32.316406 -9.25 34.300781 -9.695312 35.375 -10.59375 C 36.457031 -11.488281 37 -12.457031 37 -13.5 C 37 -14.125 36.859375 -14.695312 36.578125 -15.21875 C 36.304688 -15.738281 35.800781 -16.226562 35.0625 -16.6875 C 34.320312 -17.15625 33.316406 -17.539062 32.046875 -17.84375 C 30.785156 -18.15625 29.203125 -18.40625 27.296875 -18.59375 C 22.109375 -19.03125 17.988281 -20.375 14.9375 -22.625 C 11.882812 -24.875 10.359375 -28.1875 10.359375 -32.5625 L 10.359375 -33.125 C 10.359375 -35.40625 10.851562 -37.40625 11.84375 -39.125 C 12.832031 -40.851562 14.128906 -42.316406 15.734375 -43.515625 C 17.335938 -44.722656 19.1875 -45.632812 21.28125 -46.25 C 23.375 -46.875 25.53125 -47.1875 27.75 -47.1875 C 30.65625 -47.1875 33.171875 -46.832031 35.296875 -46.125 C 37.421875 -45.414062 39.222656 -44.488281 40.703125 -43.34375 C 42.179688 -42.195312 43.382812 -40.929688 44.3125 -39.546875 C 45.238281 -38.160156 45.945312 -36.820312 46.4375 -35.53125 L 35.890625 -31.265625 C 35.335938 -32.929688 34.382812 -34.242188 33.03125 -35.203125 C 31.675781 -36.160156 29.914062 -36.640625 27.75 -36.640625 C 25.78125 -36.640625 24.300781 -36.285156 23.3125 -35.578125 C 22.320312 -34.867188 21.828125 -33.988281 21.828125 -32.9375 Z M 21.828125 -32.9375 "/></g></g></g><g fill="#ffffff" fill-opacity="1"><g transform="translate(103.248268, 178.817098)"><g><path d="M 38.296875 -45.890625 L 49.953125 -45.890625 L 49.953125 0 L 38.296875 0 L 38.296875 -6.65625 L 36.640625 -6.65625 C 34.597656 -1.351562 30.21875 1.296875 23.5 1.296875 C 21.21875 1.296875 19.085938 0.925781 17.109375 0.1875 C 15.140625 -0.550781 13.414062 -1.691406 11.9375 -3.234375 C 10.457031 -4.773438 9.300781 -6.703125 8.46875 -9.015625 C 7.632812 -11.328125 7.21875 -14.054688 7.21875 -17.203125 L 7.21875 -45.890625 L 18.875 -45.890625 L 18.875 -19.609375 C 18.875 -16.335938 19.644531 -13.789062 21.1875 -11.96875 C 22.726562 -10.15625 25.039062 -9.25 28.125 -9.25 C 31.632812 -9.25 34.207031 -10.375 35.84375 -12.625 C 37.476562 -14.875 38.296875 -17.941406 38.296875 -21.828125 Z M 38.296875 -45.890625 "/></g></g></g><g fill="#ffffff" fill-opacity="1"><g transform="translate(158.482384, 178.817098)"><g><path d="M 16.46875 18.5 L 4.8125 18.5 L 4.8125 -45.890625 L 16.46875 -45.890625 L 16.46875 -39.234375 L 18.140625 -39.234375 C 19.367188 -41.753906 21.15625 -43.707031 23.5 -45.09375 C 25.84375 -46.488281 28.832031 -47.1875 32.46875 -47.1875 C 35.1875 -47.1875 37.765625 -46.660156 40.203125 -45.609375 C 42.640625 -44.554688 44.765625 -43.03125 46.578125 -41.03125 C 48.398438 -39.03125 49.847656 -36.578125 50.921875 -33.671875 C 52.003906 -30.773438 52.546875 -27.476562 52.546875 -23.78125 L 52.546875 -22.109375 C 52.546875 -18.347656 52.019531 -15.015625 50.96875 -12.109375 C 49.925781 -9.210938 48.507812 -6.757812 46.71875 -4.75 C 44.925781 -2.75 42.8125 -1.238281 40.375 -0.21875 C 37.945312 0.789062 35.3125 1.296875 32.46875 1.296875 C 30.375 1.296875 28.554688 1.078125 27.015625 0.640625 C 25.472656 0.210938 24.128906 -0.367188 22.984375 -1.109375 C 21.847656 -1.847656 20.894531 -2.695312 20.125 -3.65625 C 19.351562 -4.613281 18.691406 -5.613281 18.140625 -6.65625 L 16.46875 -6.65625 Z M 28.6875 -9.8125 C 32.320312 -9.8125 35.265625 -10.9375 37.515625 -13.1875 C 39.765625 -15.4375 40.890625 -18.503906 40.890625 -22.390625 L 40.890625 -23.5 C 40.890625 -27.382812 39.765625 -30.453125 37.515625 -32.703125 C 35.265625 -34.953125 32.320312 -36.078125 28.6875 -36.078125 C 25.039062 -36.078125 22.09375 -34.921875 19.84375 -32.609375 C 17.59375 -30.296875 16.46875 -27.257812 16.46875 -23.5 L 16.46875 -22.390625 C 16.46875 -18.628906 17.59375 -15.59375 19.84375 -13.28125 C 22.09375 -10.96875 25.039062 -9.8125 28.6875 -9.8125 Z M 28.6875 -9.8125 "/></g></g></g><g fill="#ffffff" fill-opacity="1"><g transform="translate(213.7165, 178.817098)"><g><path d="M 17.484375 -19.15625 C 17.546875 -17.789062 17.867188 -16.535156 18.453125 -15.390625 C 19.035156 -14.253906 19.835938 -13.269531 20.859375 -12.4375 C 21.878906 -11.601562 23.050781 -10.957031 24.375 -10.5 C 25.695312 -10.039062 27.101562 -9.8125 28.59375 -9.8125 C 31.488281 -9.8125 33.707031 -10.316406 35.25 -11.328125 C 36.789062 -12.347656 37.898438 -13.566406 38.578125 -14.984375 L 48.578125 -9.4375 C 48.015625 -8.257812 47.238281 -7.039062 46.25 -5.78125 C 45.269531 -4.519531 43.992188 -3.363281 42.421875 -2.3125 C 40.847656 -1.257812 38.9375 -0.394531 36.6875 0.28125 C 34.4375 0.957031 31.796875 1.296875 28.765625 1.296875 C 25.316406 1.296875 22.171875 0.742188 19.328125 -0.359375 C 16.492188 -1.472656 14.039062 -3.078125 11.96875 -5.171875 C 9.90625 -7.273438 8.300781 -9.835938 7.15625 -12.859375 C 6.019531 -15.878906 5.453125 -19.300781 5.453125 -23.125 L 5.453125 -23.6875 C 5.453125 -27.195312 6.050781 -30.398438 7.25 -33.296875 C 8.457031 -36.203125 10.109375 -38.671875 12.203125 -40.703125 C 14.304688 -42.742188 16.757812 -44.332031 19.5625 -45.46875 C 22.375 -46.613281 25.382812 -47.1875 28.59375 -47.1875 C 32.539062 -47.1875 35.929688 -46.488281 38.765625 -45.09375 C 41.597656 -43.707031 43.941406 -41.953125 45.796875 -39.828125 C 47.648438 -37.703125 49.003906 -35.359375 49.859375 -32.796875 C 50.722656 -30.234375 51.15625 -27.75 51.15625 -25.34375 L 51.15625 -19.15625 Z M 28.5 -36.640625 C 25.53125 -36.640625 23.117188 -35.882812 21.265625 -34.375 C 19.421875 -32.863281 18.222656 -31.117188 17.671875 -29.140625 L 39.3125 -29.140625 C 38.945312 -31.296875 37.789062 -33.082031 35.84375 -34.5 C 33.90625 -35.925781 31.457031 -36.640625 28.5 -36.640625 Z M 28.5 -36.640625 "/></g></g></g><g fill="#ffffff" fill-opacity="1"><g transform="translate(268.950616, 178.817098)"><g><path d="M 5 -45.890625 L 24.421875 -45.890625 L 24.421875 -39.234375 L 26.09375 -39.234375 C 26.957031 -41.753906 28.421875 -43.707031 30.484375 -45.09375 C 32.546875 -46.488281 35.03125 -47.1875 37.9375 -47.1875 C 42.5 -47.1875 46.164062 -45.75 48.9375 -42.875 C 51.71875 -40.007812 53.109375 -35.648438 53.109375 -29.796875 L 53.109375 -27.75 L 41.078125 -26.640625 L 41.078125 -27.9375 C 41.078125 -30.46875 40.425781 -32.488281 39.125 -34 C 37.832031 -35.507812 35.894531 -36.265625 33.3125 -36.265625 C 30.71875 -36.265625 28.679688 -35.367188 27.203125 -33.578125 C 25.722656 -31.796875 24.984375 -29.238281 24.984375 -25.90625 L 24.984375 -11.109375 L 35.53125 -11.109375 L 35.53125 0 L 3.890625 0 L 3.890625 -11.109375 L 13.328125 -11.109375 L 13.328125 -34.78125 L 5 -34.78125 Z M 5 -45.890625 "/></g></g></g><g transform="matrix(1, 0, 0, 1, 48, 160)"><g clip-path="url(#669e07c733)"><g fill="#ffadad" fill-opacity="1"><g transform="translate(0.0141517, 103.717003)"><g><path d="M 21.828125 -32.9375 C 21.828125 -31.457031 22.597656 -30.390625 24.140625 -29.734375 C 25.679688 -29.085938 28.488281 -28.550781 32.5625 -28.125 C 37.25 -27.632812 41.070312 -26.234375 44.03125 -23.921875 C 47 -21.609375 48.484375 -18.382812 48.484375 -14.25 L 48.484375 -13.6875 C 48.484375 -9.125 46.816406 -5.484375 43.484375 -2.765625 C 40.148438 -0.0546875 35.460938 1.296875 29.421875 1.296875 C 25.835938 1.296875 22.78125 0.832031 20.25 -0.09375 C 17.726562 -1.019531 15.632812 -2.175781 13.96875 -3.5625 C 12.300781 -4.945312 11.019531 -6.488281 10.125 -8.1875 C 9.226562 -9.882812 8.628906 -11.535156 8.328125 -13.140625 L 19.0625 -16.65625 C 19.550781 -14.675781 20.582031 -12.945312 22.15625 -11.46875 C 23.726562 -9.988281 26.148438 -9.25 29.421875 -9.25 C 32.316406 -9.25 34.300781 -9.695312 35.375 -10.59375 C 36.457031 -11.488281 37 -12.457031 37 -13.5 C 37 -14.125 36.859375 -14.695312 36.578125 -15.21875 C 36.304688 -15.738281 35.800781 -16.226562 35.0625 -16.6875 C 34.320312 -17.15625 33.316406 -17.539062 32.046875 -17.84375 C 30.785156 -18.15625 29.203125 -18.40625 27.296875 -18.59375 C 22.109375 -19.03125 17.988281 -20.375 14.9375 -22.625 C 11.882812 -24.875 10.359375 -28.1875 10.359375 -32.5625 L 10.359375 -33.125 C 10.359375 -35.40625 10.851562 -37.40625 11.84375 -39.125 C 12.832031 -40.851562 14.128906 -42.316406 15.734375 -43.515625 C 17.335938 -44.722656 19.1875 -45.632812 21.28125 -46.25 C 23.375 -46.875 25.53125 -47.1875 27.75 -47.1875 C 30.65625 -47.1875 33.171875 -46.832031 35.296875 -46.125 C 37.421875 -45.414062 39.222656 -44.488281 40.703125 -43.34375 C 42.179688 -42.195312 43.382812 -40.929688 44.3125 -39.546875 C 45.238281 -38.160156 45.945312 -36.820312 46.4375 -35.53125 L 35.890625 -31.265625 C 35.335938 -32.929688 34.382812 -34.242188 33.03125 -35.203125 C 31.675781 -36.160156 29.914062 -36.640625 27.75 -36.640625 C 25.78125 -36.640625 24.300781 -36.285156 23.3125 -35.578125 C 22.320312 -34.867188 21.828125 -33.988281 21.828125 -32.9375 Z M 21.828125 -32.9375 "/></g></g></g><g fill="#ffadad" fill-opacity="1"><g transform="translate(55.24138, 103.717003)"><g><path d="M 17.484375 -19.15625 C 17.546875 -17.789062 17.867188 -16.535156 18.453125 -15.390625 C 19.035156 -14.253906 19.835938 -13.269531 20.859375 -12.4375 C 21.878906 -11.601562 23.050781 -10.957031 24.375 -10.5 C 25.695312 -10.039062 27.101562 -9.8125 28.59375 -9.8125 C 31.488281 -9.8125 33.707031 -10.316406 35.25 -11.328125 C 36.789062 -12.347656 37.898438 -13.566406 38.578125 -14.984375 L 48.578125 -9.4375 C 48.015625 -8.257812 47.238281 -7.039062 46.25 -5.78125 C 45.269531 -4.519531 43.992188 -3.363281 42.421875 -2.3125 C 40.847656 -1.257812 38.9375 -0.394531 36.6875 0.28125 C 34.4375 0.957031 31.796875 1.296875 28.765625 1.296875 C 25.316406 1.296875 22.171875 0.742188 19.328125 -0.359375 C 16.492188 -1.472656 14.039062 -3.078125 11.96875 -5.171875 C 9.90625 -7.273438 8.300781 -9.835938 7.15625 -12.859375 C 6.019531 -15.878906 5.453125 -19.300781 5.453125 -23.125 L 5.453125 -23.6875 C 5.453125 -27.195312 6.050781 -30.398438 7.25 -33.296875 C 8.457031 -36.203125 10.109375 -38.671875 12.203125 -40.703125 C 14.304688 -42.742188 16.757812 -44.332031 19.5625 -45.46875 C 22.375 -46.613281 25.382812 -47.1875 28.59375 -47.1875 C 32.539062 -47.1875 35.929688 -46.488281 38.765625 -45.09375 C 41.597656 -43.707031 43.941406 -41.953125 45.796875 -39.828125 C 47.648438 -37.703125 49.003906 -35.359375 49.859375 -32.796875 C 50.722656 -30.234375 51.15625 -27.75 51.15625 -25.34375 L 51.15625 -19.15625 Z M 28.5 -36.640625 C 25.53125 -36.640625 23.117188 -35.882812 21.265625 -34.375 C 19.421875 -32.863281 18.222656 -31.117188 17.671875 -29.140625 L 39.3125 -29.140625 C 38.945312 -31.296875 37.789062 -33.082031 35.84375 -34.5 C 33.90625 -35.925781 31.457031 -36.640625 28.5 -36.640625 Z M 28.5 -36.640625 "/></g></g></g><g fill="#ffadad" fill-opacity="1"><g transform="translate(110.468608, 103.717003)"><g><path d="M 5 -45.890625 L 24.421875 -45.890625 L 24.421875 -39.234375 L 26.09375 -39.234375 C 26.957031 -41.753906 28.421875 -43.707031 30.484375 -45.09375 C 32.546875 -46.488281 35.03125 -47.1875 37.9375 -47.1875 C 42.5 -47.1875 46.164062 -45.75 48.9375 -42.875 C 51.71875 -40.007812 53.109375 -35.648438 53.109375 -29.796875 L 53.109375 -27.75 L 41.078125 -26.640625 L 41.078125 -27.9375 C 41.078125 -30.46875 40.425781 -32.488281 39.125 -34 C 37.832031 -35.507812 35.894531 -36.265625 33.3125 -36.265625 C 30.71875 -36.265625 28.679688 -35.367188 27.203125 -33.578125 C 25.722656 -31.796875 24.984375 -29.238281 24.984375 -25.90625 L 24.984375 -11.109375 L 35.53125 -11.109375 L 35.53125 0 L 3.890625 0 L 3.890625 -11.109375 L 13.328125 -11.109375 L 13.328125 -34.78125 L 5 -34.78125 Z M 5 -45.890625 "/></g></g></g><g fill="#ffadad" fill-opacity="1"><g transform="translate(165.695836, 103.717003)"><g><path d="M 3.984375 -45.890625 L 16.5625 -45.890625 L 27.390625 -5.546875 L 29.046875 -5.546875 L 39.875 -45.890625 L 52.453125 -45.890625 L 39.3125 0 L 17.109375 0 Z M 3.984375 -45.890625 "/></g></g></g><g fill="#ffadad" fill-opacity="1"><g transform="translate(220.923064, 103.717003)"><g><path d="M 17.484375 -19.15625 C 17.546875 -17.789062 17.867188 -16.535156 18.453125 -15.390625 C 19.035156 -14.253906 19.835938 -13.269531 20.859375 -12.4375 C 21.878906 -11.601562 23.050781 -10.957031 24.375 -10.5 C 25.695312 -10.039062 27.101562 -9.8125 28.59375 -9.8125 C 31.488281 -9.8125 33.707031 -10.316406 35.25 -11.328125 C 36.789062 -12.347656 37.898438 -13.566406 38.578125 -14.984375 L 48.578125 -9.4375 C 48.015625 -8.257812 47.238281 -7.039062 46.25 -5.78125 C 45.269531 -4.519531 43.992188 -3.363281 42.421875 -2.3125 C 40.847656 -1.257812 38.9375 -0.394531 36.6875 0.28125 C 34.4375 0.957031 31.796875 1.296875 28.765625 1.296875 C 25.316406 1.296875 22.171875 0.742188 19.328125 -0.359375 C 16.492188 -1.472656 14.039062 -3.078125 11.96875 -5.171875 C 9.90625 -7.273438 8.300781 -9.835938 7.15625 -12.859375 C 6.019531 -15.878906 5.453125 -19.300781 5.453125 -23.125 L 5.453125 -23.6875 C 5.453125 -27.195312 6.050781 -30.398438 7.25 -33.296875 C 8.457031 -36.203125 10.109375 -38.671875 12.203125 -40.703125 C 14.304688 -42.742188 16.757812 -44.332031 19.5625 -45.46875 C 22.375 -46.613281 25.382812 -47.1875 28.59375 -47.1875 C 32.539062 -47.1875 35.929688 -46.488281 38.765625 -45.09375 C 41.597656 -43.707031 43.941406 -41.953125 45.796875 -39.828125 C 47.648438 -37.703125 49.003906 -35.359375 49.859375 -32.796875 C 50.722656 -30.234375 51.15625 -27.75 51.15625 -25.34375 L 51.15625 -19.15625 Z M 28.5 -36.640625 C 25.53125 -36.640625 23.117188 -35.882812 21.265625 -34.375 C 19.421875 -32.863281 18.222656 -31.117188 17.671875 -29.140625 L 39.3125 -29.140625 C 38.945312 -31.296875 37.789062 -33.082031 35.84375 -34.5 C 33.90625 -35.925781 31.457031 -36.640625 28.5 -36.640625 Z M 28.5 -36.640625 "/></g></g></g></g></g></svg>